<svg xmlns="http://www.w3.org/2000/svg" width="31.009" height="29.368" viewBox="0 0 31.009 29.368"><path d="M30.956 14.94l-.026.013-4.449-11.071h2.03a.659.659 0 1 0 0-1.318h-12.4v-1.9a.659.659 0 1 0-1.318 0v1.9H2.392a.659.659 0 1 0 0 1.318h2.116L.053 14.94a.659.659 0 0 0-.053.245 5.48 5.48 0 0 0 10.96 0 .659.659 0 0 0-.053-.244L6.459 3.869h8.331v20.378c-3.144.237-5.6 2.149-5.6 4.462a.659.659 0 0 0 .659.659h11.2a.659.659 0 0 0 .659-.659c0-2.313-2.458-4.225-5.6-4.462V3.869h8.416L20.1 14.94a.659.659 0 0 0-.053.244 5.48 5.48 0 1 0 10.96 0 .659.659 0 0 0-.051-.244zM5.477 19.357a4.165 4.165 0 0 1-4.106-3.5h8.185a4.165 4.165 0 0 1-4.079 3.5zm3.842-4.817H1.648L5.49 4.976zm10.954 13.51h-9.656c.488-1.417 2.5-2.511 4.824-2.511s4.344 1.094 4.832 2.511zM25.5 4.982l3.828 9.558h-7.671zm0 14.374v.007a4.165 4.165 0 0 1-4.08-3.506h8.18a4.165 4.165 0 0 1-4.1 3.5z" fill="#aac0c3"/></svg>