<svg xmlns="http://www.w3.org/2000/svg" width="34.736" height="30.344" viewBox="0 0 34.736 30.344"><defs><style>.a{fill:#46bece}</style></defs><path class="a" d="M18.827 25.581a1.527 1.527 0 1 0-.912 1.956 1.531 1.531 0 0 0 .912-1.956zm-1.26 1a.509.509 0 1 1 .3-.652.506.506 0 0 1-.301.652z"/><path class="a" d="M34.705 20.889l-.7-1.913a.507.507 0 0 0-.26-.285l-.023-.01-.022-.009h-.005a.506.506 0 0 0-.338 0l-1.664.605-3.539-9.725-1.392-3.823a.51.51 0 0 0-.957.348l1.219 3.347-6.534 2.378-3.99 1.448-2.664-7.331 3.507-1.276.754 2.072a.51.51 0 0 0 .478.335.493.493 0 0 0 .174-.031l2.55-.928a.508.508 0 0 0 .329-.551c0-.013 0-.027-.008-.04v-.011a.506.506 0 0 0-.015-.049l-.754-2.072 3.506-1.276.754 2.071a.512.512 0 0 0 .478.335.5.5 0 0 0 .174-.031.51.51 0 0 0 .3-.652l-.928-2.55a.511.511 0 0 0-.4-.328.508.508 0 0 0-.252.024l-4.46 1.624-2.542.925h-.007L13.01 5.137a.508.508 0 0 0-.3.652l3.016 8.287 2.9 7.97a4.21 4.21 0 0 0-1.149-.183L10.126 1.674A2.547 2.547 0 0 0 6.865.153L.336 2.508.3 2.523l-.012.006-.032.017-.013.007-.029.02-.014.009-.025.021-.013.011-.022.023-.012.012-.02.024-.008.014-.016.025-.013.017-.014.026-.009.018c0 .008-.007.017-.011.026l-.008.019c0 .008-.005.017-.008.026s0 .014-.006.021 0 .017-.005.026 0 .015 0 .022v.149c0 .008 0 .018.005.027s0 .015 0 .023.005.018.008.027 0 .015.007.022l.7 1.913c.005.014.012.027.019.041s.009.022.015.032l.027.04c.009.013.011.018.017.025a.489.489 0 0 0 .036.039l.017.018a.509.509 0 0 0 .044.035l.016.013a.5.5 0 0 0 .051.03l.015.009a.5.5 0 0 0 .055.022l.016.006a.518.518 0 0 0 .059.014h.016a.5.5 0 0 0 .077.006h.103l.027-.006.029-.009h.014L7.43 3.195l7.175 19.714a4.239 4.239 0 1 0 7.027 3.275L34.4 21.541h.01l.038-.016.015-.008.03-.016.016-.011.026-.018.008-.006.031-.026v-.005l.03-.03.005-.007.025-.032a.292.292 0 0 0 .024-.037v-.007l.019-.036.006-.015c0-.01.009-.02.012-.03s0-.014.007-.022.005-.017.008-.025.005-.025.008-.038v-.01a.507.507 0 0 0-.013-.257zM19.893 3.715l.58 1.594-1.594.58-.58-1.594zm3.016 8.287l.58 1.594-1.594.58-.58-1.594zm-6.056 2.2l3.506-1.273.754 2.072a.507.507 0 0 0 .652.3l2.55-.928a.508.508 0 0 0 .3-.652l-.754-2.071 3.507-1.276 3.369 9.255-10.152 3.687a4.266 4.266 0 0 0-.631-.589zM8.213 2.37c0-.008-.007-.016-.01-.024l-.01-.024-.011-.02-.014-.025-.011-.016-.018-.026-.01-.012-.022-.026-.01-.01-.026-.025-.008-.006-.03-.024-.036-.024a.511.511 0 0 0-.23-.068h-.128l-.03.006-.034.01H7.56L1.509 4.249l-.348-.956 6.05-2.182a1.528 1.528 0 0 1 1.956.912l7.262 19.951a4.149 4.149 0 0 0-.956.349zm12.1 25.095a3.224 3.224 0 1 1 .108-2.464 3.2 3.2 0 0 1-.108 2.464zm1.209-2.323a4.311 4.311 0 0 0-.145-.489 4.22 4.22 0 0 0-.2-.468l12.053-4.383.348.956z"/></svg>