<svg xmlns="http://www.w3.org/2000/svg" width="43.993" height="43.993" viewBox="0 0 43.993 43.993"><path d="M17.38 43.994h11.844l14.77-14.77V17.38zM6.462 8.308L0 14.77v11.844L12.384 14.23zm15.534 15.534L1.845 43.993h11.844l14.229-14.228zm15.535 15.535l-4.617 4.617h9.234zm1.846-1.846l4.617 4.617v-9.234zM14.77 0L8.308 6.462l5.922 5.922L26.614 0zM0 32.914v9.234l4.617-4.617zm23.842-10.918l5.923 5.922 14.23-14.23V1.845zM0 0v11.079L11.079 0zm32.914 0l4.617 4.617L42.148 0zM.54 29.763L29.763.54l5.922 5.922L6.462 35.685z" fill="#46bece"/></svg>