<svg xmlns="http://www.w3.org/2000/svg" width="143" height="250" viewBox="0 0 143 250"><path fill="#46bece" d="M62.262.632c31.072 0 56.26 25.188 56.26 56.26.049.121.87-.236-56.26 0-57.129.235-56.283.02-56.259 0 0-31.072 25.188-56.26 56.26-56.26z"/><path fill="#ffc400" d="M62.262 116.67c31.072 0 56.26-25.189 56.26-56.26.049-.122.87.236-56.26 0-57.129-.235-56.283-.02-56.259 0 0 31.071 25.188 56.26 56.26 56.26z"/><path fill="#fff" d="M38.648 60.301h6.982l-26.303 37.78-3.768-6.057zm21.121 0h6.58v56.369h-6.58zm29.569 0h-6.982l26.304 37.78 3.767-6.057z"/><text fill="#1f1f1f" style="line-height:35px;font-kerning:normal" dominant-baseline="text-before-edge" font-family="'Futura','Futura-Bold'" font-size="35" font-style="none" font-weight="700" transform="translate(-1 146)"><tspan fill="#46bece" font-family="FuturaBT-Book" font-size="47" letter-spacing="3.95">FIRST</tspan><tspan> </tspan><tspan>FLOОR</tspan></text><text fill="#3c3c3c" style="line-height:31px;font-kerning:normal" dominant-baseline="text-before-edge" font-family="'Futura','FuturaBT-Book'" font-size="14" transform="translate(0 234)"><tspan>#</tspan><tspan font-family="'Lucida Grande','LucidaGrande'" font-style="none" font-weight="400">підлогапідключ</tspan></text></svg>