<svg width="200" height="81" viewBox="0 0 200 81" xmlns="http://www.w3.org/2000/svg"><g id="Page-1" stroke="none" stroke-width="1" fill="none" fill-rule="evenodd"><g id="FirstFlor-logo"><g id="icon" transform="translate(0 .697)"><path d="M38.619 0c21.328 0 38.617 17.29 38.617 38.617.034.084.6-.162-38.617 0s-38.633.013-38.617 0C.002 17.289 17.292 0 38.619 0z" id="Path_15" fill="#46BECE"/><path d="M38.619 79.649c21.328 0 38.617-17.29 38.617-38.617.034-.084.6.162-38.617 0s-38.633-.014-38.617 0c0 21.328 17.29 38.617 38.617 38.617z" id="Path_16" fill="#FFC400"/><path id="Path_17" fill="#FFF" d="M22.41 40.957h4.793L9.147 66.889l-2.585-4.157z"/><path id="Path_19" fill="#FFF" d="M36.909 40.957h4.516v38.692h-4.516z"/><path id="Path_20" fill="#FFF" d="M57.204 40.957h-4.792l18.055 25.932 2.586-4.157z"/></g><g id="FIRST_FLOОR" transform="translate(94.417 5)" fill-rule="nonzero"><g id="Group" transform="translate(1)"><g id="FIRST"><g id="path-1-link" fill="#000"><path d="M.75 24V1.125h12.063v2.484H3.469v6.563h9.344v2.531H3.469V24H.75zM17 24V1.125h2.719V24H17zm8.25 0V1.125h5.375c1.531 0 2.654.086 3.367.258a4.946 4.946 0 0 1 1.883.883c.677.53 1.203 1.242 1.578 2.132.375.891.563 1.878.563 2.961 0 1.875-.524 3.3-1.57 4.274-1.048.974-2.581 1.46-4.602 1.46h-.485L40.094 24H36.64l-8.344-10.906h-.39V24H25.25zm2.656-20.578v7.656h2.078c2.125 0 3.547-.273 4.266-.82.719-.547 1.078-1.503 1.078-2.867 0-1.47-.37-2.498-1.11-3.086-.739-.589-2.15-.883-4.234-.883h-2.078zm22.797 7.875c1.49.635 2.612 1.479 3.367 2.531.756 1.052 1.133 2.297 1.133 3.735 0 2.104-.67 3.799-2.008 5.085-1.338 1.287-3.112 1.93-5.32 1.93-1.802 0-3.312-.46-4.531-1.383-1.219-.922-2.042-2.231-2.469-3.93l2.469-1.218c.333 1.385.883 2.435 1.648 3.148.766.714 1.727 1.07 2.883 1.07 1.365 0 2.469-.393 3.313-1.18.843-.786 1.265-1.809 1.265-3.07 0-1.02-.294-1.908-.883-2.663-.588-.756-1.476-1.394-2.664-1.915l-2.781-1.187c-1.52-.635-2.654-1.453-3.398-2.453-.745-1-1.118-2.198-1.118-3.594 0-1.625.605-2.969 1.813-4.031C44.63 1.109 46.172.578 48.047.578c1.375 0 2.565.292 3.57.875s1.79 1.443 2.352 2.578l-2.25 1.438c-.51-.886-1.084-1.545-1.719-1.977a3.744 3.744 0 0 0-2.156-.648c-1.021 0-1.857.312-2.508.937s-.977 1.422-.977 2.39c0 .813.25 1.516.75 2.11.5.594 1.276 1.12 2.328 1.578l3.266 1.438zM62.828 24V3.719H56.36V1.125h15.657v2.594h-6.438V24h-2.75z" id="path-1"/></g><g id="path-1-link" fill="#46BECE"><path d="M.75 24V1.125h12.063v2.484H3.469v6.563h9.344v2.531H3.469V24H.75zM17 24V1.125h2.719V24H17zm8.25 0V1.125h5.375c1.531 0 2.654.086 3.367.258a4.946 4.946 0 0 1 1.883.883c.677.53 1.203 1.242 1.578 2.132.375.891.563 1.878.563 2.961 0 1.875-.524 3.3-1.57 4.274-1.048.974-2.581 1.46-4.602 1.46h-.485L40.094 24H36.64l-8.344-10.906h-.39V24H25.25zm2.656-20.578v7.656h2.078c2.125 0 3.547-.273 4.266-.82.719-.547 1.078-1.503 1.078-2.867 0-1.47-.37-2.498-1.11-3.086-.739-.589-2.15-.883-4.234-.883h-2.078zm22.797 7.875c1.49.635 2.612 1.479 3.367 2.531.756 1.052 1.133 2.297 1.133 3.735 0 2.104-.67 3.799-2.008 5.085-1.338 1.287-3.112 1.93-5.32 1.93-1.802 0-3.312-.46-4.531-1.383-1.219-.922-2.042-2.231-2.469-3.93l2.469-1.218c.333 1.385.883 2.435 1.648 3.148.766.714 1.727 1.07 2.883 1.07 1.365 0 2.469-.393 3.313-1.18.843-.786 1.265-1.809 1.265-3.07 0-1.02-.294-1.908-.883-2.663-.588-.756-1.476-1.394-2.664-1.915l-2.781-1.187c-1.52-.635-2.654-1.453-3.398-2.453-.745-1-1.118-2.198-1.118-3.594 0-1.625.605-2.969 1.813-4.031C44.63 1.109 46.172.578 48.047.578c1.375 0 2.565.292 3.57.875s1.79 1.443 2.352 2.578l-2.25 1.438c-.51-.886-1.084-1.545-1.719-1.977a3.744 3.744 0 0 0-2.156-.648c-1.021 0-1.857.312-2.508.937s-.977 1.422-.977 2.39c0 .813.25 1.516.75 2.11.5.594 1.276 1.12 2.328 1.578l3.266 1.438zM62.828 24V3.719H56.36V1.125h15.657v2.594h-6.438V24h-2.75z" id="path-1"/></g></g></g><g id="Group" transform="translate(0 27)" fill="#1F1F1F"><g id="FLOОR"><g id="path-2-link"><path d="M7.203 25H.687V.875h11.516v5.672h-5v3.516h4.656v5.453H7.203V25zm18.938 0H14.734V.875h6.516v18.328h4.89V25zm19.578-11.984c0 3.677-.839 6.666-2.516 8.968-1.667 2.292-3.838 3.438-6.516 3.438-2.375 0-4.41-.88-6.109-2.64-2.135-2.23-3.203-5.574-3.203-10.032 0-4.27 1.115-7.536 3.344-9.797 1.656-1.677 3.62-2.515 5.89-2.515 2.782 0 4.995 1.135 6.641 3.406 1.646 2.27 2.469 5.328 2.469 9.172zm-6.766.046c0-4.364-.77-6.546-2.312-6.546-.771 0-1.386.573-1.844 1.718-.448 1.063-.672 2.625-.672 4.688 0 2.031.21 3.607.633 4.726.422 1.12 1.008 1.68 1.758 1.68.77 0 1.364-.552 1.78-1.656.438-1.104.657-2.64.657-4.61zm28.078.954c0 3.677-.838 6.666-2.515 8.968-1.667 2.292-3.839 3.438-6.516 3.438-2.375 0-4.411-.88-6.11-2.64-2.135-2.23-3.203-5.574-3.203-10.032 0-4.27 1.115-7.536 3.344-9.797 1.657-1.677 3.62-2.515 5.89-2.515 2.782 0 4.996 1.135 6.642 3.406 1.645 2.27 2.468 5.328 2.468 9.172zm-6.515-.032c0-4.364-.771-6.546-2.313-6.546-.77 0-1.385.572-1.844 1.718-.448 1.063-.672 2.625-.672 4.688 0 2.031.211 3.607.633 4.726.422 1.12 1.008 1.68 1.758 1.68.771 0 1.365-.552 1.781-1.656.438-1.104.657-2.64.657-4.61zM88 25h-7.047l-3.219-8.594a6.075 6.075 0 0 0-.164-.578c-.078-.24-.174-.526-.289-.86l.047 1.595V25h-6.484V.875h6.672c2.937 0 5.135.578 6.593 1.734 1.855 1.48 2.782 3.584 2.782 6.313 0 2.917-1.245 4.932-3.735 6.047L88 25zM77.36 12.047h.437c.75 0 1.375-.287 1.875-.86.5-.572.75-1.302.75-2.187 0-1.802-.943-2.703-2.828-2.703h-.235v5.75z" id="path-2"/></g></g></g></g><g id="_підлогапідключ" transform="translate(93.463 65.077)" fill-rule="nonzero"><g id="#" transform="translate(0 1)"><g id="path-3-link" fill="#000"><path d="M6.176 4.528H4.5l-.603 1.727h1.67l.61-1.727zM5.853.758l-1.054 2.99h1.65L7.516.758h.907l-1.04 2.99H9.33l-.273.78H7.084l-.597 1.727h2.095l-.273.78H6.202l-1.054 2.978h-.92l1.066-2.977H3.612l-1.067 2.977h-.907L2.69 7.036H.661l.272-.781h2.031l.61-1.727H1.403l.273-.78h2.183L4.926.758h.927z" id="path-3"/></g><g id="path-3-link" fill="#3C3C3C"><path d="M6.176 4.528H4.5l-.603 1.727h1.67l.61-1.727zM5.853.758l-1.054 2.99h1.65L7.516.758h.907l-1.04 2.99H9.33l-.273.78H7.084l-.597 1.727h2.095l-.273.78H6.202l-1.054 2.978h-.92l1.066-2.977H3.612l-1.067 2.977h-.907L2.69 7.036H.661l.272-.781h2.031l.61-1.727H1.403l.273-.78h2.183L4.926.758h.927z" id="path-3"/></g></g><g id="підлогапідключ" transform="translate(10)"><g id="path-4-link" fill="#000"><path d="M6.506 10H5.332V4.103H2.171V10H.99V3.132h5.515V10zm3.161 0H8.493V3.132h1.174V10zm-1.27-8.69c0-.19.06-.351.176-.482C8.689.696 8.86.63 9.09.63c.228 0 .402.065.52.197a.694.694 0 0 1 .178.482c0 .19-.06.35-.178.476-.118.127-.292.19-.52.19-.229 0-.401-.063-.517-.19a.678.678 0 0 1-.175-.476zm3.092 7.732l.407-.502c.457-.592.717-1.481.78-2.666l.108-2.742h4.424v5.91h.883v2.977h-1.174V10h-4.793v2.019H10.95l.006-2.977h.533zm1.39 0h3.155V4.217H13.92l-.07 1.638c-.071 1.367-.395 2.429-.97 3.187zm12.143-5.91V10h-1.18V4.103h-2.336l-.14 2.57c-.076 1.181-.274 2.026-.593 2.534-.32.507-.827.772-1.52.793h-.47V8.965l.336-.025c.381-.042.654-.262.819-.66.165-.398.27-1.134.317-2.21l.127-2.938h4.64zm1.575 3.37c0-.672.132-1.278.396-1.815a2.96 2.96 0 0 1 1.105-1.244 3.007 3.007 0 0 1 1.615-.438c.936 0 1.692.324 2.27.971.577.648.866 1.509.866 2.584v.082c0 .669-.128 1.269-.384 1.8a2.916 2.916 0 0 1-1.098 1.24c-.476.297-1.023.445-1.64.445-.932 0-1.686-.324-2.264-.971-.578-.648-.866-1.505-.866-2.571v-.083zm1.18.14c0 .762.177 1.373.53 1.835.354.46.827.691 1.42.691.596 0 1.07-.233 1.42-.701.352-.468.528-1.122.528-1.965 0-.753-.179-1.363-.537-1.83a1.705 1.705 0 0 0-1.425-.702c-.58 0-1.047.23-1.402.692-.356.46-.534 1.121-.534 1.98zM38.76 4.103h-3.17V10h-1.18V3.132h4.348v.971zM44.015 10c-.068-.135-.123-.377-.165-.724-.546.567-1.198.851-1.955.851-.678 0-1.233-.192-1.667-.575a1.859 1.859 0 0 1-.65-1.456c0-.715.272-1.27.815-1.667.544-.395 1.309-.593 2.295-.593h1.143v-.54c0-.41-.123-.737-.369-.98-.245-.244-.607-.365-1.085-.365-.419 0-.77.105-1.054.317-.283.212-.425.468-.425.768h-1.18c0-.343.12-.674.364-.993.244-.32.574-.573.99-.759.417-.186.875-.28 1.375-.28.791 0 1.411.199 1.86.594.448.396.681.94.698 1.635v3.161c0 .63.08 1.132.241 1.504V10h-1.231zm-1.95-.895c.37 0 .718-.095 1.048-.286.33-.19.57-.438.718-.742v-1.41h-.92c-1.44 0-2.159.422-2.159 1.264 0 .368.123.656.368.863.246.207.56.311.946.311zM52.464 10H51.29V4.103h-3.161V10h-1.18V3.132h5.515V10zm3.162 0H54.45V3.132h1.175V10zm-1.27-8.69c0-.19.058-.351.175-.482.116-.132.288-.197.517-.197.228 0 .402.065.52.197a.694.694 0 0 1 .178.482c0 .19-.06.35-.178.476-.118.127-.292.19-.52.19-.229 0-.401-.063-.517-.19a.678.678 0 0 1-.175-.476zm3.091 7.732l.407-.502c.457-.592.717-1.481.78-2.666l.108-2.742h4.425v5.91h.882v2.977h-1.174V10H58.08v2.019h-1.174l.006-2.977h.533zm1.39 0h3.155V4.217h-2.114l-.07 1.638c-.071 1.367-.395 2.429-.97 3.187zm8.652-1.968h-.857V10h-1.18V3.132h1.18v2.907h.768l2.311-2.907h1.422l-2.717 3.3L71.36 10h-1.49l-2.38-2.926zM78 3.132V10h-1.18V4.103h-2.337l-.14 2.57c-.075 1.181-.273 2.026-.593 2.534-.32.507-.826.772-1.52.793h-.47V8.965l.337-.025c.38-.042.653-.262.819-.66.165-.398.27-1.134.317-2.21l.127-2.938H78zm3.167 2.913h1.65c.09-.914.415-1.649.975-2.205.56-.557 1.269-.835 2.124-.835.897 0 1.63.302 2.202.908.571.605.88 1.392.927 2.36l.006.37c0 .668-.13 1.27-.393 1.808a2.91 2.91 0 0 1-1.105 1.241c-.474.29-1.015.435-1.625.435-.884 0-1.608-.289-2.17-.867-.564-.577-.879-1.327-.946-2.25h-1.645V10h-1.174V3.132h1.174v2.913zm2.806.597c0 .762.177 1.373.53 1.835.354.46.829.691 1.425.691.597 0 1.07-.234 1.419-.704s.524-1.124.524-1.962c0-.749-.178-1.358-.534-1.828a1.694 1.694 0 0 0-1.421-.704c-.584 0-1.054.23-1.41.692-.355.46-.533 1.121-.533 1.98zM95.678 10h-1.18V7.512a6.229 6.229 0 0 1-1.587.203c-.86 0-1.514-.22-1.965-.66-.45-.44-.68-1.067-.689-1.88v-2.05h1.175v2.089c.02 1.024.514 1.536 1.479 1.536.541 0 1.07-.068 1.587-.203V3.132h1.18V10z" id="path-4"/></g><g id="path-4-link" fill="#3C3C3C"><path d="M6.506 10H5.332V4.103H2.171V10H.99V3.132h5.515V10zm3.161 0H8.493V3.132h1.174V10zm-1.27-8.69c0-.19.06-.351.176-.482C8.689.696 8.86.63 9.09.63c.228 0 .402.065.52.197a.694.694 0 0 1 .178.482c0 .19-.06.35-.178.476-.118.127-.292.19-.52.19-.229 0-.401-.063-.517-.19a.678.678 0 0 1-.175-.476zm3.092 7.732l.407-.502c.457-.592.717-1.481.78-2.666l.108-2.742h4.424v5.91h.883v2.977h-1.174V10h-4.793v2.019H10.95l.006-2.977h.533zm1.39 0h3.155V4.217H13.92l-.07 1.638c-.071 1.367-.395 2.429-.97 3.187zm12.143-5.91V10h-1.18V4.103h-2.336l-.14 2.57c-.076 1.181-.274 2.026-.593 2.534-.32.507-.827.772-1.52.793h-.47V8.965l.336-.025c.381-.042.654-.262.819-.66.165-.398.27-1.134.317-2.21l.127-2.938h4.64zm1.575 3.37c0-.672.132-1.278.396-1.815a2.96 2.96 0 0 1 1.105-1.244 3.007 3.007 0 0 1 1.615-.438c.936 0 1.692.324 2.27.971.577.648.866 1.509.866 2.584v.082c0 .669-.128 1.269-.384 1.8a2.916 2.916 0 0 1-1.098 1.24c-.476.297-1.023.445-1.64.445-.932 0-1.686-.324-2.264-.971-.578-.648-.866-1.505-.866-2.571v-.083zm1.18.14c0 .762.177 1.373.53 1.835.354.46.827.691 1.42.691.596 0 1.07-.233 1.42-.701.352-.468.528-1.122.528-1.965 0-.753-.179-1.363-.537-1.83a1.705 1.705 0 0 0-1.425-.702c-.58 0-1.047.23-1.402.692-.356.46-.534 1.121-.534 1.98zM38.76 4.103h-3.17V10h-1.18V3.132h4.348v.971zM44.015 10c-.068-.135-.123-.377-.165-.724-.546.567-1.198.851-1.955.851-.678 0-1.233-.192-1.667-.575a1.859 1.859 0 0 1-.65-1.456c0-.715.272-1.27.815-1.667.544-.395 1.309-.593 2.295-.593h1.143v-.54c0-.41-.123-.737-.369-.98-.245-.244-.607-.365-1.085-.365-.419 0-.77.105-1.054.317-.283.212-.425.468-.425.768h-1.18c0-.343.12-.674.364-.993.244-.32.574-.573.99-.759.417-.186.875-.28 1.375-.28.791 0 1.411.199 1.86.594.448.396.681.94.698 1.635v3.161c0 .63.08 1.132.241 1.504V10h-1.231zm-1.95-.895c.37 0 .718-.095 1.048-.286.33-.19.57-.438.718-.742v-1.41h-.92c-1.44 0-2.159.422-2.159 1.264 0 .368.123.656.368.863.246.207.56.311.946.311zM52.464 10H51.29V4.103h-3.161V10h-1.18V3.132h5.515V10zm3.162 0H54.45V3.132h1.175V10zm-1.27-8.69c0-.19.058-.351.175-.482.116-.132.288-.197.517-.197.228 0 .402.065.52.197a.694.694 0 0 1 .178.482c0 .19-.06.35-.178.476-.118.127-.292.19-.52.19-.229 0-.401-.063-.517-.19a.678.678 0 0 1-.175-.476zm3.091 7.732l.407-.502c.457-.592.717-1.481.78-2.666l.108-2.742h4.425v5.91h.882v2.977h-1.174V10H58.08v2.019h-1.174l.006-2.977h.533zm1.39 0h3.155V4.217h-2.114l-.07 1.638c-.071 1.367-.395 2.429-.97 3.187zm8.652-1.968h-.857V10h-1.18V3.132h1.18v2.907h.768l2.311-2.907h1.422l-2.717 3.3L71.36 10h-1.49l-2.38-2.926zM78 3.132V10h-1.18V4.103h-2.337l-.14 2.57c-.075 1.181-.273 2.026-.593 2.534-.32.507-.826.772-1.52.793h-.47V8.965l.337-.025c.38-.042.653-.262.819-.66.165-.398.27-1.134.317-2.21l.127-2.938H78zm3.167 2.913h1.65c.09-.914.415-1.649.975-2.205.56-.557 1.269-.835 2.124-.835.897 0 1.63.302 2.202.908.571.605.88 1.392.927 2.36l.006.37c0 .668-.13 1.27-.393 1.808a2.91 2.91 0 0 1-1.105 1.241c-.474.29-1.015.435-1.625.435-.884 0-1.608-.289-2.17-.867-.564-.577-.879-1.327-.946-2.25h-1.645V10h-1.174V3.132h1.174v2.913zm2.806.597c0 .762.177 1.373.53 1.835.354.46.829.691 1.425.691.597 0 1.07-.234 1.419-.704s.524-1.124.524-1.962c0-.749-.178-1.358-.534-1.828a1.694 1.694 0 0 0-1.421-.704c-.584 0-1.054.23-1.41.692-.355.46-.533 1.121-.533 1.98zM95.678 10h-1.18V7.512a6.229 6.229 0 0 1-1.587.203c-.86 0-1.514-.22-1.965-.66-.45-.44-.68-1.067-.689-1.88v-2.05h1.175v2.089c.02 1.024.514 1.536 1.479 1.536.541 0 1.07-.068 1.587-.203V3.132h1.18V10z" id="path-4"/></g></g></g></g></g></svg>