<svg width="121" height="249" viewBox="0 0 121 249" xmlns="http://www.w3.org/2000/svg" xmlns:xlink="http://www.w3.org/1999/xlink"><defs><path d="M4.297 48V12.258h18.848v3.882h-14.6v10.254h14.6v3.955h-14.6V48H4.297zm25.39 0V12.258h4.249V48h-4.248zm12.891 0V12.258h8.399c2.392 0 4.146.134 5.26.403 1.116.268 2.096.728 2.943 1.379 1.058.83 1.88 1.941 2.466 3.333.585 1.391.878 2.933.878 4.626 0 2.93-.817 5.155-2.453 6.677-1.636 1.522-4.033 2.283-7.19 2.283h-.757L65.771 48h-5.395L47.339 30.959h-.61V48h-4.15zm4.15-32.153V27.81h3.248c3.32 0 5.542-.428 6.665-1.282 1.123-.855 1.684-2.348 1.684-4.48 0-2.295-.578-3.902-1.733-4.822-1.156-.92-3.361-1.38-6.616-1.38h-3.247zm35.62 12.304c2.328.993 4.082 2.312 5.262 3.955 1.18 1.644 1.77 3.59 1.77 5.835 0 3.288-1.046 5.937-3.137 7.947-2.092 2.01-4.863 3.015-8.313 3.015-2.816 0-5.176-.72-7.08-2.16-1.905-1.44-3.19-3.487-3.858-6.14l3.858-1.905c.52 2.165 1.379 3.805 2.575 4.92 1.197 1.115 2.698 1.672 4.505 1.672 2.132 0 3.857-.614 5.175-1.843 1.319-1.23 1.978-2.828 1.978-4.798 0-1.595-.46-2.982-1.38-4.162-.919-1.18-2.307-2.177-4.162-2.99l-4.346-1.856c-2.376-.993-4.146-2.27-5.31-3.833-1.163-1.563-1.745-3.435-1.745-5.616 0-2.539.944-4.638 2.832-6.298 1.888-1.66 4.297-2.49 7.226-2.49 2.149 0 4.008.455 5.579 1.367 1.57.911 2.795 2.254 3.674 4.028l-3.515 2.246c-.798-1.384-1.693-2.413-2.686-3.088-.993-.676-2.116-1.014-3.37-1.014-1.594 0-2.9.489-3.918 1.465-1.017.977-1.525 2.222-1.525 3.736 0 1.27.39 2.368 1.171 3.295.782.928 1.994 1.75 3.638 2.466l5.103 2.246zM101.295 48V16.31H91.187v-4.052h24.462v4.053h-10.058V48h-4.297z" id="path-1"/><path d="M8.972 36H1.846V9.613H14.44v6.204H8.972v3.845h5.093v5.964H8.972V36zm20.713 0H17.21V9.613h7.127V29.66h5.35V36zm9.023-13.195c0 1.05.199 2.018.595 2.905a7.345 7.345 0 0 0 1.61 2.31 7.277 7.277 0 0 0 2.363 1.523 7.58 7.58 0 0 0 2.852.542 7.566 7.566 0 0 0 5.233-2.065 7.209 7.209 0 0 0 1.627-2.31c.397-.887.595-1.855.595-2.905 0-1.05-.198-2.018-.595-2.905a7.209 7.209 0 0 0-1.627-2.31 7.566 7.566 0 0 0-5.233-2.065c-1.003 0-1.954.18-2.852.542a7.277 7.277 0 0 0-2.363 1.523 7.345 7.345 0 0 0-1.61 2.31c-.396.887-.595 1.855-.595 2.905zm-7.175 0c0-1.96.362-3.786 1.085-5.477a13.669 13.669 0 0 1 3.01-4.428c1.284-1.26 2.818-2.246 4.603-2.957 1.785-.712 3.75-1.068 5.897-1.068 2.124 0 4.084.356 5.88 1.068 1.797.711 3.343 1.697 4.638 2.957a13.535 13.535 0 0 1 3.027 4.428c.724 1.691 1.085 3.517 1.085 5.477 0 1.96-.361 3.786-1.085 5.477a13.535 13.535 0 0 1-3.027 4.428c-1.295 1.26-2.84 2.246-4.638 2.957-1.796.712-3.756 1.068-5.88 1.068-2.146 0-4.112-.356-5.897-1.068-1.785-.711-3.32-1.697-4.603-2.957a13.669 13.669 0 0 1-3.01-4.428c-.723-1.691-1.085-3.517-1.085-5.477zm39.55 0c0 1.05.199 2.018.595 2.905a7.345 7.345 0 0 0 1.61 2.31 7.277 7.277 0 0 0 2.363 1.523 7.58 7.58 0 0 0 2.852.542 7.566 7.566 0 0 0 5.233-2.065 7.209 7.209 0 0 0 1.627-2.31c.397-.887.595-1.855.595-2.905 0-1.05-.198-2.018-.595-2.905a7.209 7.209 0 0 0-1.627-2.31 7.566 7.566 0 0 0-5.232-2.065c-1.004 0-1.955.18-2.853.542a7.277 7.277 0 0 0-2.363 1.523 7.345 7.345 0 0 0-1.61 2.31c-.396.887-.595 1.855-.595 2.905zm-7.175 0c0-1.96.362-3.786 1.085-5.477a13.669 13.669 0 0 1 3.01-4.428c1.284-1.26 2.818-2.246 4.603-2.957 1.785-.712 3.75-1.068 5.897-1.068 2.124 0 4.084.356 5.88 1.068 1.797.711 3.343 1.697 4.638 2.957a13.535 13.535 0 0 1 3.027 4.428c.724 1.691 1.085 3.517 1.085 5.477 0 1.96-.361 3.786-1.085 5.477a13.535 13.535 0 0 1-3.027 4.428c-1.295 1.26-2.84 2.246-4.638 2.957-1.796.712-3.756 1.068-5.88 1.068-2.146 0-4.112-.356-5.897-1.068-1.785-.711-3.32-1.697-4.603-2.957a13.669 13.669 0 0 1-3.01-4.428c-.723-1.691-1.085-3.517-1.085-5.477zM115.318 36h-7.707l-3.52-9.4a6.645 6.645 0 0 0-.18-.632 63.78 63.78 0 0 0-.316-.94l.051 1.743V36h-7.092V9.613h7.298c3.212 0 5.616.633 7.211 1.897 2.028 1.618 3.042 3.92 3.042 6.905 0 3.19-1.361 5.394-4.084 6.613L115.319 36zm-11.637-14.167h.478c.82 0 1.504-.314 2.051-.94.547-.627.82-1.425.82-2.393 0-1.971-1.03-2.957-3.093-2.957h-.256v6.29z" id="path-2"/><path d="M6.651 9.107H4.847l-.65 1.86h1.798l.656-1.86zm-.348-4.06l-1.135 3.22h1.777l1.149-3.22h.977l-1.12 3.22h2.098l-.294.84H7.629l-.643 1.86h2.256l-.294.84h-2.27l-1.134 3.207h-.991L5.7 11.808H3.89l-1.15 3.206h-.977l1.134-3.206H.711l.294-.841h2.187l.657-1.86H1.51l.294-.84h2.351l1.149-3.22h.998z" id="path-3"/><path d="M18.007 15h-1.265V8.65h-3.404V15h-1.272V7.604h5.94V15zm3.404 0h-1.265V7.604h1.265V15zm-1.367-9.358c0-.205.063-.379.188-.52.125-.141.311-.212.557-.212.246 0 .433.07.56.212a.747.747 0 0 1 .192.52.722.722 0 0 1-.191.512c-.128.137-.315.205-.56.205-.247 0-.433-.068-.558-.205a.73.73 0 0 1-.188-.512zm3.329 8.326l.438-.54c.492-.638.772-1.595.84-2.871l.117-2.953h4.764v6.364h.95v3.206h-1.264V15h-5.161v2.174h-1.265l.007-3.206h.574zm1.497 0h3.398V8.772H25.99l-.075 1.764c-.077 1.472-.426 2.616-1.046 3.432zm13.077-6.364V15h-1.271V8.65H34.16l-.15 2.768c-.082 1.271-.295 2.18-.64 2.728-.343.546-.89.831-1.637.854h-.505v-1.114l.362-.028c.41-.045.704-.282.882-.71.177-.429.291-1.222.341-2.38l.137-3.164h4.997zm1.696 3.63c0-.725.142-1.377.427-1.956a3.187 3.187 0 0 1 1.19-1.34c.507-.314 1.087-.471 1.739-.471 1.007 0 1.822.348 2.444 1.046.622.697.933 1.624.933 2.782v.089c0 .72-.138 1.366-.414 1.938a3.14 3.14 0 0 1-1.182 1.336c-.513.32-1.102.479-1.767.479-1.003 0-1.815-.349-2.437-1.046-.622-.697-.933-1.62-.933-2.769v-.089zm1.271.15c0 .82.19 1.479.57 1.975.381.497.89.745 1.529.745.642 0 1.153-.251 1.53-.755.38-.503.568-1.209.568-2.116 0-.81-.192-1.468-.577-1.972-.385-.503-.897-.755-1.535-.755-.624 0-1.128.248-1.51.745-.384.497-.575 1.208-.575 2.133zM52.74 8.649h-3.41V15h-1.272V7.604h4.682v1.045zM58.4 15c-.073-.146-.132-.406-.177-.78-.588.611-1.29.917-2.106.917-.729 0-1.327-.206-1.794-.619a2.002 2.002 0 0 1-.7-1.569c0-.77.292-1.368.877-1.794.586-.426 1.41-.64 2.472-.64h1.23v-.58c0-.442-.132-.795-.396-1.057-.265-.262-.654-.393-1.17-.393-.45 0-.829.114-1.134.342-.305.228-.458.504-.458.827h-1.272c0-.369.131-.725.394-1.07a2.683 2.683 0 0 1 1.066-.816c.449-.2.942-.301 1.48-.301.852 0 1.52.213 2.003.639.483.426.734 1.013.752 1.76v3.405c0 .679.086 1.219.26 1.62V15H58.4zm-2.098-.964c.396 0 .772-.102 1.128-.307a1.86 1.86 0 0 0 .772-.8V11.41h-.991c-1.55 0-2.324.454-2.324 1.36 0 .397.132.707.396.93.265.223.604.335 1.019.335zM67.499 15h-1.265V8.65H62.83V15h-1.27V7.604h5.94V15zm3.404 0H69.64V7.604h1.264V15zm-1.367-9.358c0-.205.063-.379.188-.52.125-.141.311-.212.557-.212.246 0 .433.07.56.212a.747.747 0 0 1 .192.52.722.722 0 0 1-.191.512c-.128.137-.315.205-.56.205-.247 0-.433-.068-.558-.205a.73.73 0 0 1-.188-.512zm3.33 8.326l.437-.54c.492-.638.772-1.595.84-2.871l.117-2.953h4.764v6.364h.95v3.206H78.71V15h-5.161v2.174h-1.265l.007-3.206h.574zm1.496 0h3.398V8.772h-2.277l-.075 1.764c-.077 1.472-.426 2.616-1.046 3.432zm9.318-2.12h-.923V15h-1.272V7.604h1.272v3.13h.827l2.488-3.13h1.532l-2.926 3.554L87.85 15h-1.607l-2.563-3.151zM95 7.605V15h-1.271V8.65h-2.516l-.15 2.768c-.083 1.271-.296 2.18-.64 2.728-.344.546-.89.831-1.637.854h-.506v-1.114l.363-.028c.41-.045.704-.282.881-.71.178-.429.292-1.222.342-2.38l.137-3.164H95zm3.411 3.137h1.777c.096-.984.446-1.776 1.05-2.375.604-.6 1.366-.9 2.286-.9.967 0 1.757.327 2.372.978.616.652.948 1.5.999 2.543l.006.397c0 .72-.14 1.37-.423 1.948a3.135 3.135 0 0 1-1.19 1.336c-.51.313-1.094.469-1.75.469-.952 0-1.732-.311-2.338-.933-.606-.622-.945-1.43-1.018-2.424h-1.77V15h-1.266V7.604h1.265v3.137zm3.022.643c0 .82.19 1.479.57 1.975.381.497.893.745 1.535.745.643 0 1.152-.252 1.528-.758.376-.506.564-1.21.564-2.113 0-.806-.192-1.462-.574-1.968a1.827 1.827 0 0 0-1.532-.76c-.628 0-1.134.25-1.517.746-.383.497-.574 1.208-.574 2.133zM114.038 15h-1.271v-2.68a6.708 6.708 0 0 1-1.71.22c-.925 0-1.63-.238-2.115-.712-.485-.474-.733-1.148-.742-2.023V7.597h1.265v2.249c.023 1.103.554 1.654 1.593 1.654.583 0 1.153-.073 1.709-.219V7.604h1.271V15z" id="path-4"/></defs><g id="Page-1" stroke="none" stroke-width="1" fill="none" fill-rule="evenodd"><g id="FirstFlor-logo2" transform="translate(-1)"><g id="icon" transform="translate(7.796)"><path d="M57.263 0c31.071 0 56.259 25.188 56.259 56.259.049.122.87-.235-56.259 0s-56.284.02-56.259 0C1.004 25.188 26.192 0 57.263 0z" id="Path_15" fill="#46BECE"/><path d="M57.263 116.037c31.071 0 56.259-25.188 56.259-56.259.049-.122.87.235-56.259 0s-56.284-.02-56.261 0a56.259 56.259 0 0 0 56.261 56.259z" id="Path_16" fill="#FFC400"/><path id="Path_17" fill="#FFF" d="M33.649 59.669h6.982L14.327 97.448l-3.767-6.056z"/><path id="Path_19" fill="#FFF" d="M54.771 59.669h6.579v56.368h-6.579z"/><path id="Path_20" fill="#FFF" d="M84.338 59.669h-6.982l26.3 37.779 3.767-6.057z"/></g><g id="FIRST_FLOОR" transform="translate(0 141.368)"><g id="Group"><g id="FIRST"><use fill="#000" xlink:href="#path-1"/><use fill="#46BECE" xlink:href="#path-1"/></g></g><g id="Group" transform="translate(2 47)"><g id="FLООR"><use fill="#000" xlink:href="#path-2"/><use fill="#1F1F1F" xlink:href="#path-2"/></g></g></g><g id="_підлогапідключ" transform="translate(.946 231.797)"><g id="#"><use fill="#000" xlink:href="#path-3"/><use fill="#3C3C3C" xlink:href="#path-3"/></g><g id="підлогапідключ"><use fill="#000" xlink:href="#path-4"/><use fill="#3C3C3C" xlink:href="#path-4"/></g></g></g></g></svg>