<svg xmlns="http://www.w3.org/2000/svg" width="54.848" height="47.058" viewBox="0 0 54.848 47.058"><defs><style>.a{fill:#46bece}</style></defs><path class="a" d="M54.5 35.719l-10.363-4.49-14.92 5.968a5.2 5.2 0 0 1-3.583 0L10.713 31.23.351 35.719c-.472.2-.467.524.01.716l26.2 10.48a2.68 2.68 0 0 0 1.729 0l26.2-10.48c.474-.191.479-.513.01-.716z"/><path class="a" d="M54.5 23.617l-10.367-4.491-14.916 5.966a5.165 5.165 0 0 1-3.585 0l-14.918-5.966L.351 23.617c-.472.2-.467.523.01.716l26.2 10.478a2.694 2.694 0 0 0 1.729 0l26.2-10.479c.474-.191.479-.511.01-.715z"/><path class="a" d="M.361 12.23l13.662 5.465 12.537 5.01a2.68 2.68 0 0 0 1.729 0l12.541-5.011 13.658-5.463c.477-.191.48-.511.01-.716L28.277.153a2.46 2.46 0 0 0-1.708 0L.351 11.515c-.472.204-.467.525.01.715z"/></svg>