<svg xmlns="http://www.w3.org/2000/svg" width="60.091" height="51.866" viewBox="0 0 60.091 51.866"><defs><style>.a,.b{fill:#46bece}.b{stroke:#fff;stroke-width:2px}</style></defs><g transform="translate(2.091 -25.67)"><path class="a" d="M57 32.585a1.184 1.184 0 0 0-1.184-1.184v-2.365a1.183 1.183 0 1 0 0-2.365H12.048v44.95h43.769a1.183 1.183 0 1 0 0-2.365v-2.364a1.183 1.183 0 1 0 0-2.365v-2.368a1.184 1.184 0 1 0 0-2.367v-2.366a1.183 1.183 0 1 0 0-2.365v-2.369a1.183 1.183 0 1 0 0-2.365v-2.364a1.183 1.183 0 1 0 0-2.367v-2.365a1.183 1.183 0 1 0 0-2.365v-2.367a1.183 1.183 0 1 0 0-2.365v-2.366A1.184 1.184 0 0 0 57 32.585z"/><path class="b" d="M13.907 59.844H57a1.182 1.182 0 0 0-1.184-1.182v-2.367a1.183 1.183 0 1 0 0-2.365v-2.365a1.183 1.183 0 1 0 0-2.367v-2.365A1.184 1.184 0 0 0 57 45.65H13.907z"/><path class="a" d="M22.036 28.14a24.486 24.486 0 0 0-8.8-1.469 24.492 24.492 0 0 0-8.8 1.469C1.713 29.227.22 30.805.22 32.585v39.036c0 1.781 1.494 3.358 4.207 4.445a24.493 24.493 0 0 0 8.8 1.469 24.485 24.485 0 0 0 8.8-1.469c2.714-1.087 4.207-2.663 4.207-4.445V32.585c.009-1.78-1.485-3.358-4.198-4.445z"/><ellipse class="b" cx="13.012" cy="5.914" rx="13.012" ry="5.914" transform="translate(.219 26.67)"/><path d="M14.569 31.576a.966.966 0 0 1 0 1.816 3.357 3.357 0 0 1-3.084 0 .966.966 0 0 1 0-1.816 3.357 3.357 0 0 1 3.084 0z" fill="#fff"/><path class="b" d="M13.174 51.969c-7.6 0-14.265-3.9-14.265-7.21v14.413c0 3.315 6.669 6.834 14.265 6.834s14.079-3.52 14.079-6.834V44.759c0 3.315-6.484 7.21-14.079 7.21z"/></g></svg>