<svg xmlns="http://www.w3.org/2000/svg" width="54" height="35" viewBox="0 0 54 35"><path fill="#ffbc4f" d="M17.1.659C7.638.659-.06 8.355-.06 17.815c0 9.46 7.698 17.157 17.158 17.157 9.461 0 17.158-7.697 17.158-17.157S26.56.66 17.1.66z"/><path fill="#ff7d4f" d="M36.135.659c-9.46 0-17.158 7.696-17.158 17.156 0 9.46 7.697 17.157 17.158 17.157 9.46 0 17.158-7.697 17.158-17.157S45.596.66 36.135.66z"/><path fill="#ffbc4f" d="M25.66 23.445c0-.863-.7-1.563-1.563-1.563h-4.631a17.013 17.013 0 0 0 1.094 3.127h3.537c.863 0 1.563-.7 1.563-1.564zm0-10.172c0-.863-.7-1.563-1.563-1.563H20.1a17.01 17.01 0 0 0-.865 3.126h4.86c.864 0 1.564-.7 1.564-1.563zm4.3 5.087c0-.864-.7-1.564-1.563-1.564h-9.389a17.266 17.266 0 0 0 .099 3.126h9.29c.863 0 1.563-.7 1.563-1.563z"/></svg>