<svg xmlns="http://www.w3.org/2000/svg" width="70.395" height="50.909" viewBox="0 0 70.395 50.909"><defs><style>.a{fill:#46bece}.b{fill:#fff}</style></defs><path class="a" d="M64.326 41.327l5.964-1.6a.142.142 0 0 0 .1-.137V22.725a2.694 2.694 0 0 0-2.694-2.694h-51.33a2.694 2.694 0 0 0-2.694 2.694v25.489a2.694 2.694 0 0 0 2.694 2.694h51.338a2.694 2.694 0 0 0 2.694-2.694v-3.9a.142.142 0 0 0-.085-.13l-6-2.588a.142.142 0 0 1 .013-.269zm0 0"/><path class="b" d="M53.858 33.419a5.26 5.26 0 0 0 5.26-5.26V19.03H15.371a2.694 2.694 0 0 0-2.694 2.694v11.694zm0 0"/><path class="a" d="M54.024 0H2.694A2.694 2.694 0 0 0 0 2.694v25.49a2.694 2.694 0 0 0 2.694 2.694h51.33a2.694 2.694 0 0 0 2.694-2.694V2.694A2.694 2.694 0 0 0 54.024 0zm0 0"/><path class="b" d="M56.718 16.349v-3.12a42.7 42.7 0 0 1-4.243 4.4 28.289 28.289 0 0 1-15.792 6.607c-4.386.412-8.671-.118-13.818-.854l-.377-.054a66.963 66.963 0 0 0-13.89-1A29.769 29.769 0 0 0 0 24.51v2.242a28.676 28.676 0 0 1 8.736-2.373 65.309 65.309 0 0 1 13.461.986l.376.054c4.155.595 9.325 1.335 14.3.866a30.367 30.367 0 0 0 16.95-7.1c.777-.666 1.882-1.754 2.895-2.836zM0 3.392c4.2.475 8.327 2.664 12.328 4.786C13.8 8.96 15.2 9.7 16.6 10.361a26.012 26.012 0 0 0 8.891 2.474q.536.046 1.053.045a8.465 8.465 0 0 0 5.64-1.869 4.987 4.987 0 0 0 1.708-3.645 10.4 10.4 0 0 0-1.27-5.026A18.332 18.332 0 0 0 31.212 0h-2.6c1.713 2.023 3.342 4.976 3.226 7.262a2.958 2.958 0 0 1-1 2.2 7.119 7.119 0 0 1-5.162 1.322 23.95 23.95 0 0 1-8.196-2.289c-1.36-.64-2.733-1.368-4.186-2.139C9.189 4.178 4.952 1.932.454 1.368a1.024 1.024 0 0 0-.083-.033A2.679 2.679 0 0 0 0 2.694zm0 0"/><path class="b" d="M40.7 5.25c.839 3.7-.071 7.389-2.319 9.4a9.885 9.885 0 0 1-5.627 2.194 32.146 32.146 0 0 1-6.228-.237l-.351-.036c-7.213-.737-14.956-1.269-22.706-.173-1.109.156-2.541.439-3.467.632v2.11c1.189-.253 2.71-.55 3.755-.7 7.532-1.064 15.125-.541 22.209.182l.349.036a33.685 33.685 0 0 0 6.634.24 11.733 11.733 0 0 0 6.808-2.712 9.986 9.986 0 0 0 2.995-5.306 13.874 13.874 0 0 0-.041-6.089A28.713 28.713 0 0 0 40.9 0h-2.28a30.859 30.859 0 0 1 2.08 5.25zM13.676 38.383h13.4a1.031 1.031 0 0 0 0-2.062h-13.4zm56.719-12.981h-4.633a1.031 1.031 0 1 0 0 2.062h4.633zm-6.088 16.192a.142.142 0 0 1 .019-.267l3.45-.926h-26.16a1.031 1.031 0 1 0 0 2.062h24.708zm0 0"/></svg>