<svg xmlns="http://www.w3.org/2000/svg" width="80.09" height="52.482" viewBox="0 0 80.09 52.482"><defs><style>.a{fill:#46bece}</style></defs><path class="a" d="M18.838 46.474l5.869-5.855L46.46 18.852h.013a.2.2 0 0 1 .056-.055 11.046 11.046 0 1 0-16.03-15.192.235.235 0 0 1-.056.069h-.013L9.074 25.012l-5.856 5.842.013.014a11.035 11.035 0 1 0 15.607 15.606zm-13.328-7.8a5.523 5.523 0 1 1 1.619 3.904 5.524 5.524 0 0 1-1.618-3.907zm0 0"/><path class="a" d="M13.797 38.671a2.762 2.762 0 1 1-2.762-2.762 2.762 2.762 0 0 1 2.762 2.762zm64.912-22.097H51.322a13.533 13.533 0 0 1-1.616 2.762 13.745 13.745 0 0 1-1.1 1.271c-.028.028-.042.056-.069.083s-.069.083-.111.124L20.689 48.546a2.314 2.314 0 0 1-.207.18 13.191 13.191 0 0 1-1.174.994 13.667 13.667 0 0 1-8.273 2.762h34.527a1.381 1.381 0 0 0 0-2.762H43.38l2.762-2.762h4.944a1.381 1.381 0 1 0 0-2.762H48.9l2.762-2.762h4.944a1.381 1.381 0 0 0 0-2.762h-2.182l2.762-2.762h4.944a1.381 1.381 0 1 0 0-2.762h-2.182l2.762-2.762h4.945a1.381 1.381 0 1 0 0-2.762h-2.182l2.762-2.762h4.944a1.381 1.381 0 0 0 0-2.762H71l2.762-2.762h4.945a1.381 1.381 0 0 0 0-2.762zm0 0"/></svg>