<svg xmlns="http://www.w3.org/2000/svg" width="34" height="17" viewBox="0 0 34 17"><path fill="#fff" d="M28.885 14.784l-5.072-5.992 7.63-5.991zM10.2 2.608L15.272 8.6l-7.63 5.991zm8.767 8.305l-7.703-9.1h19.293zm-.6 1.344a.664.664 0 0 0 .916.092l3.486-2.737 5.052 5.968H8.528l7.6-5.968zM32.99.733a.662.662 0 0 0-.515-.246H9.834a.662.662 0 0 0-.648.524L5.963 16.104a.66.66 0 0 0 .648.801h22.64a.662.662 0 0 0 .647-.524l3.223-15.093a.66.66 0 0 0-.132-.555zM2.255 4.014h4.008a.662.662 0 1 0 0-1.326H2.255a.662.662 0 1 0 0 1.326zm3.08 1.302a.662.662 0 0 0-.663-.663H.662a.662.662 0 1 0 0 1.325h4.01a.662.662 0 0 0 .663-.662zm1.591 1.965a.662.662 0 0 0-.663-.662H2.255a.662.662 0 1 0 0 1.325h4.008a.662.662 0 0 0 .663-.663z"/></svg>