<svg xmlns="http://www.w3.org/2000/svg"><defs><symbol id="icon-instagram" viewBox="0 0 32 32"><path d="M18.735 15.726a3.01 3.01 0 0 1-6.02 0 3.01 3.01 0 0 1 6.02 0z"/><path d="M20.545 11.989a1.083 1.083 0 0 1 0-2.166 1.083 1.083 0 0 1 0 2.166zm-4.819 8.372a4.637 4.637 0 1 1 0-9.274 4.637 4.637 0 1 1 0 9.274zm7.04-9.962a2.82 2.82 0 0 0-.676-1.038l-.001-.001a2.79 2.79 0 0 0-1.018-.669l-.019-.006c-.318-.123-.796-.271-1.677-.311-.952-.043-1.238-.052-3.648-.052-2.412 0-2.697.009-3.65.052-.88.04-1.359.187-1.676.311a2.785 2.785 0 0 0-1.039.677c-.3.291-.53.646-.676 1.038-.123.318-.271.795-.311 1.677-.043.951-.053 1.237-.053 3.648s.009 2.697.053 3.649c.04.88.187 1.359.311 1.677.145.393.375.747.676 1.039.291.3.646.53 1.038.675.318.124.796.272 1.677.311.953.044 1.238.053 3.649.053s2.697-.009 3.648-.052c.881-.04 1.36-.187 1.678-.311a3.006 3.006 0 0 0 1.706-1.694l.007-.02c.123-.318.271-.795.311-1.677.044-.952.053-1.238.053-3.648 0-2.412-.009-2.697-.053-3.649-.04-.88-.186-1.359-.311-1.677z"/><path d="M24.7 19.448c-.044.961-.197 1.618-.421 2.192a4.64 4.64 0 0 1-2.609 2.63l-.031.011c-.574.223-1.231.375-2.192.42-.963.044-1.271.055-3.723.055s-2.759-.011-3.723-.055c-.96-.044-1.617-.197-2.192-.421a4.429 4.429 0 0 1-1.599-1.041l-.001-.001a4.434 4.434 0 0 1-1.03-1.569l-.01-.03c-.223-.574-.376-1.231-.421-2.192-.044-.963-.054-1.271-.054-3.723s.01-2.759.055-3.723c.043-.96.196-1.617.419-2.192A4.431 4.431 0 0 1 8.21 8.21l.001-.001c.44-.448.974-.801 1.57-1.03l.03-.01c.573-.223 1.23-.376 2.191-.421.964-.043 1.271-.054 3.723-.054s2.76.011 3.723.055c.961.044 1.617.197 2.192.419.626.24 1.16.594 1.599 1.042l.001.001c.448.44.802.974 1.031 1.57l.01.03c.223.573.376 1.23.42 2.191.044.964.055 1.271.055 3.723s-.011 2.76-.055 3.723zM15.725 0C7.042 0 0 7.042 0 15.726S7.042 31.45 15.726 31.45c8.683 0 15.724-7.041 15.724-15.725S24.409 0 15.726 0z"/></symbol><symbol id="icon-youtube" viewBox="0 0 32 32"><path d="M14.128 18.726l5.093-2.934-5.093-2.933z"/><path d="M25.861 15.808s0 3.176-.402 4.708a2.46 2.46 0 0 1-1.707 1.72l-.017.004c-1.531.402-7.656.402-7.656.402s-6.108 0-7.656-.419a2.462 2.462 0 0 1-1.72-1.707l-.004-.017c-.402-1.515-.402-4.707-.402-4.707s0-3.174.402-4.706A2.512 2.512 0 0 1 8.406 9.35l.018-.004c1.531-.402 7.656-.402 7.656-.402s6.125 0 7.656.419a2.453 2.453 0 0 1 1.724 1.724c.419 1.531.402 4.722.402 4.722zM16.079.136C7.433.135.421 7.147.421 15.792s7.012 15.657 15.657 15.657 15.657-7.011 15.657-15.657S24.724.135 16.079.135z"/></symbol><symbol id="icon-facebook" viewBox="0 0 32 32"><path d="M19.636 16.279h-2.559v9.118h-3.791v-9.118h-1.802v-3.223h1.802v-2.085c0-1.493.71-3.826 3.825-3.826l2.81.011v3.129h-2.039c-.332 0-.805.165-.805.878v1.893h2.889zM15.725 0C7.055 0 0 7.055 0 15.726 0 24.395 7.055 31.45 15.726 31.45c8.669 0 15.724-7.055 15.724-15.725S24.397 0 15.726 0z"/></symbol></defs></svg>