<svg xmlns="http://www.w3.org/2000/svg"><defs><symbol id="icon-balance" viewBox="0 0 34 32"><path d="M33.73 16.279l-.028.014L28.854 4.23h2.212a.717.717 0 1 0 0-1.436H17.555V.724a.718.718 0 0 0-1.436 0v2.07H2.607a.717.717 0 1 0 0 1.436h2.306L.059 16.279a.695.695 0 0 0-.058.266v.001a5.97 5.97 0 1 0 11.942 0 .688.688 0 0 0-.06-.27l.002.005L7.038 4.217h9.078v22.204c-3.426.258-6.102 2.342-6.102 4.862 0 .397.322.718.718.718h12.204a.718.718 0 0 0 .718-.718c0-2.52-2.678-4.604-6.102-4.862V4.217h9.17l-4.82 12.063a.724.724 0 0 0-.058.265v.001a5.97 5.97 0 1 0 11.942 0 .742.742 0 0 0-.057-.271l.002.005zM5.968 21.092a4.539 4.539 0 0 1-4.47-3.787l-.004-.026h8.919c-.36 2.164-2.209 3.796-4.443 3.814h-.002zm4.186-5.249H1.796L5.982 5.422zM22.09 30.564H11.569c.532-1.544 2.724-2.736 5.256-2.736s4.733 1.192 5.265 2.736zm5.695-25.136l4.171 10.415h-8.358zm0 15.663v.008a4.54 4.54 0 0 1-4.442-3.794l-.004-.026h8.913a4.546 4.546 0 0 1-4.467 3.814h-.001z"/></symbol><symbol id="icon-search" viewBox="0 0 32 32"><path d="M31.716 30.368l-7.777-7.777a13.591 13.591 0 0 0 3.349-8.958c0-7.542-6.114-13.656-13.656-13.656S-.024 6.091-.024 13.633c0 7.542 6.114 13.656 13.656 13.656 3.435 0 6.574-1.269 8.974-3.363l-.016.014 7.777 7.777c.172.173.41.282.674.284h.003a.956.956 0 0 0 .671-1.632zM1.909 13.644C1.913 7.169 7.162 1.922 13.638 1.922c6.477 0 11.729 5.251 11.729 11.729s-5.251 11.728-11.729 11.728c-6.477-.008-11.725-5.258-11.729-11.735z"/></symbol><symbol id="icon-cart_ico" viewBox="0 0 37 32"><path d="M19.854 26.977a1.61 1.61 0 1 0-.951 2.059l-.011.004a1.619 1.619 0 0 0 .958-2.074l.004.011zm-1.328 1.055a.537.537 0 1 1 .315-.692l.001.004a.533.533 0 0 1-.313.686l-.004.001z"/><path d="M36.599 22.029l-.738-2.017a.536.536 0 0 0-.271-.299l-.003-.001-.024-.011-.023-.009h-.005a.531.531 0 0 0-.36.001l.004-.001-1.755.638-5.2-14.287a.538.538 0 1 0-1.008.371l-.001-.004 1.286 3.53-11.098 4.035-2.809-7.731 3.698-1.346.795 2.185a.537.537 0 0 0 .504.353h.002a.515.515 0 0 0 .185-.034l-.004.001 2.689-.979a.537.537 0 0 0 .347-.584v.003c0-.014 0-.028-.008-.042v-.012a.453.453 0 0 0-.017-.055l.001.004-.795-2.185 3.697-1.346.795 2.184a.541.541 0 0 0 .504.353h.001a.52.52 0 0 0 .186-.034l-.004.001a.538.538 0 0 0 .315-.692l.001.004-.979-2.689a.54.54 0 0 0-.419-.345h-.003a.538.538 0 0 0-.27.026l.004-.001L13.72 5.418a.536.536 0 0 0-.315.691l-.001-.004 6.239 17.144a4.358 4.358 0 0 0-1.207-.193h-.005L10.679 1.765A2.69 2.69 0 0 0 7.222.167l.019-.006-6.97 2.524-.014.007-.031.021-.015.01-.026.022-.014.012-.023.024-.013.013-.021.025-.008.015-.017.026-.014.018-.015.027-.01.019c0 .008-.007.018-.012.027l-.008.02c0 .008-.005.018-.008.027s0 .015-.006.022 0 .018-.005.027 0 .016 0 .023v.155c0 .008 0 .019.005.028s0 .016 0 .024.005.019.008.028 0 .016.007.023l.738 2.017c.005.015.013.028.02.043s.009.023.016.034l.028.042.018.026a.498.498 0 0 0 .038.041l.018.019c.014.012.029.025.045.036l.002.001.017.014a.49.49 0 0 0 .051.03l.003.001.016.01c.015.008.035.015.054.022l.004.001.017.006.059.014h.02a.513.513 0 0 0 .081.006h.109l.028-.006.031-.01h.015l6.377-2.314 7.567 20.79a4.47 4.47 0 1 0 7.41 3.458v-.005l13.616-4.975.033-.027v-.005l.032-.032.005-.007a.278.278 0 0 0 .026-.034.234.234 0 0 0 .025-.039v-.007l.02-.038.006-.016c0-.011.01-.021.013-.032s0-.015.007-.023.005-.018.008-.026.005-.026.008-.04v-.011a.537.537 0 0 0-.015-.274l.001.004zM20.979 3.918l.612 1.681-1.681.612-.612-1.681zm3.18 8.739l.612 1.681-1.681.612-.612-1.681zm-6.386 2.32l3.697-1.342.795 2.185a.536.536 0 0 0 .692.315l-.004.001 2.689-.979a.536.536 0 0 0 .315-.691l.001.004-.795-2.184 3.698-1.346 3.553 9.76-10.706 3.888a4.458 4.458 0 0 0-.655-.613l-.011-.008zM8.661 2.499c0-.008-.007-.017-.011-.025l-.011-.025-.012-.021-.015-.026-.012-.017-.019-.027-.011-.013-.023-.027-.011-.011-.027-.026-.008-.006-.032-.025-.038-.025a.54.54 0 0 0-.241-.072h-.136l-.032.006-.036.011H7.97L1.589 4.483l-.367-1.008 6.38-2.301a1.612 1.612 0 0 1 2.059.95l.004.011 7.658 21.04c-.382.09-.719.216-1.032.38l.024-.012zm12.761 26.465a3.406 3.406 0 0 1-3.081 1.963 3.4 3.4 0 1 1 3.188-4.585l.008.023c.131.346.207.745.207 1.163 0 .521-.118 1.015-.329 1.456l.009-.02zm1.275-2.45a4.542 4.542 0 0 0-.163-.547l.01.031a4.255 4.255 0 0 0-.223-.519l.012.025 12.711-4.622.367 1.008z"/></symbol><symbol id="icon-maps" viewBox="0 0 24 32"><path d="M23.927 30.872l-4.219-8.924a.8.8 0 0 0-.399-.387l-.005-.002-2.099-.935 3.636-6.095.025-.045a9.822 9.822 0 0 0 1.089-4.529 9.932 9.932 0 0 0-2.963-7.089l-.001-.001A9.923 9.923 0 0 0 12.006.004c-5.498 0-9.955 4.457-9.955 9.955 0 1.653.403 3.212 1.116 4.583l-.026-.055.025.045 3.636 6.095-2.111.939a.797.797 0 0 0-.391.379l-.002.005-4.219 8.924a.79.79 0 0 0 1.039 1.057l-.005.002 5.285-2.352 5.285 2.352a.783.783 0 0 0 .649-.002l-.005.002 5.281-2.357 5.28 2.354a.79.79 0 0 0 1.032-1.064l.002.005zM4.535 13.744a8.18 8.18 0 0 1-.905-3.765v-.081.004a8.42 8.42 0 0 1 8.248-8.323h.008l.115-.001a8.38 8.38 0 0 1 7.453 12.212l.022-.047-6.797 11.385a.79.79 0 0 1-1.354.003l-.002-.004zm13.394 14.249a.783.783 0 0 0-.649.002l.005-.002L12 30.345l-5.285-2.352a.783.783 0 0 0-.649.002l.005-.002-3.659 1.628 3.183-6.734 2.017-.897 2.355 3.946a2.37 2.37 0 0 0 4.062.01l.006-.011 2.355-3.946 2.017.897 3.182 6.734z"/><path d="M11.999 6.35a3.605 3.605 0 1 0 3.604 3.604 3.608 3.608 0 0 0-3.604-3.604zm0 5.628a2.024 2.024 0 1 1 2.024-2.024 2.026 2.026 0 0 1-2.024 2.024z"/></symbol></defs></svg>