<svg xmlns="http://www.w3.org/2000/svg" width="31.009" height="29.368" viewBox="0 0 31.009 29.368"><defs><style>.a{fill:#aac0c3;}</style></defs><g transform="translate(0 -9.96)"><g transform="translate(0 9.96)"><path class="a" d="M30.956,24.9l-.026.013L26.481,13.842h2.03a.659.659,0,1,0,0-1.318h-12.4v-1.9a.659.659,0,1,0-1.318,0v1.9H2.392a.659.659,0,1,0,0,1.318H4.508L.053,24.9A.659.659,0,0,0,0,25.145a5.48,5.48,0,0,0,10.96,0,.659.659,0,0,0-.053-.244L6.459,13.829h8.331V34.207c-3.144.237-5.6,2.149-5.6,4.462a.659.659,0,0,0,.659.659h11.2a.659.659,0,0,0,.659-.659c0-2.313-2.458-4.225-5.6-4.462V13.829h8.416L20.1,24.9a.659.659,0,0,0-.053.244,5.48,5.48,0,1,0,10.96,0A.659.659,0,0,0,30.956,24.9ZM5.477,29.317a4.165,4.165,0,0,1-4.106-3.5H9.556A4.165,4.165,0,0,1,5.477,29.317ZM9.319,24.5H1.648L5.49,14.936ZM20.273,38.01H10.617c.488-1.417,2.5-2.511,4.824-2.511S19.785,36.593,20.273,38.01ZM25.5,14.942,29.328,24.5H21.657Zm0,14.374v.007a4.165,4.165,0,0,1-4.08-3.506H29.6A4.165,4.165,0,0,1,25.5,29.317Z" transform="translate(0 -9.96)"/></g></g></svg>