<svg xmlns="http://www.w3.org/2000/svg" width="34.736" height="30.344" viewBox="0 0 34.736 30.344"><defs><style>.a{fill:#46bece;}</style></defs><g transform="translate(0 -32.371)"><g transform="translate(15.866 56.947)"><path class="a" d="M236.821,395.62a1.527,1.527,0,1,0-.912,1.956A1.531,1.531,0,0,0,236.821,395.62Zm-1.26,1a.509.509,0,1,1,.3-.652A.506.506,0,0,1,235.56,396.62Z" transform="translate(-233.86 -394.615)"/></g><g transform="translate(0 32.371)"><g transform="translate(0 0)"><path class="a" d="M34.705,53.26l-.7-1.913a.507.507,0,0,0-.26-.285l0,0-.023-.01-.022-.009-.005,0a.506.506,0,0,0-.338,0l-1.664.605-3.539-9.725h0L26.762,38.1a.509.509,0,0,0-.957.348l1.219,3.347-6.534,2.378h0L16.5,45.621,13.836,38.29l3.507-1.276.754,2.072a.51.51,0,0,0,.478.335.493.493,0,0,0,.174-.031l2.55-.928a.508.508,0,0,0,.329-.551v0c0-.013,0-.027-.008-.04l0-.011a.506.506,0,0,0-.015-.049l-.754-2.072,3.506-1.276.754,2.071a.512.512,0,0,0,.478.335.5.5,0,0,0,.174-.031.51.51,0,0,0,.3-.652l-.928-2.55a.511.511,0,0,0-.4-.328.508.508,0,0,0-.252.024l-4.46,1.624h0l0,0-2.542.925h0l-.007,0L13.01,37.508a.508.508,0,0,0-.3.652l3.016,8.287,2.9,7.97a4.21,4.21,0,0,0-1.149-.183L10.126,34.045a2.547,2.547,0,0,0-3.261-1.521h0L.336,34.879h0L.3,34.894.288,34.9l-.032.017-.013.007-.029.02L.2,34.953l-.025.021-.013.011-.022.023-.012.012-.02.024L.1,35.058l-.016.025L.071,35.1l-.014.026-.009.018c0,.008-.007.017-.011.026l-.008.019c0,.008-.005.017-.008.026s0,.014-.006.021,0,.017-.005.026,0,.015,0,.022,0,.018,0,.026,0,.015,0,.023,0,.018,0,.027,0,.015,0,.023,0,.018,0,.027,0,.015,0,.023,0,.018.005.027,0,.015,0,.023.005.018.008.027,0,.015.007.022h0l.7,1.913c.005.014.012.027.019.041s.009.022.015.032.018.027.027.04.011.018.017.025a.489.489,0,0,0,.036.039l.017.018a.509.509,0,0,0,.044.035l.016.013a.5.5,0,0,0,.051.03l.015.009a.5.5,0,0,0,.055.022l.016.006a.518.518,0,0,0,.059.014l.016,0a.5.5,0,0,0,.077.006l.043,0h.009l.035,0,.016,0,.027-.006.029-.009.014,0h0L7.43,35.566,14.605,55.28a4.239,4.239,0,1,0,7.027,3.275L34.4,53.912h0l.01,0,.038-.016.015-.008.03-.016.016-.011.026-.018.008-.006.031-.026,0-.005.03-.03.005-.007c.009-.01.017-.021.025-.032l0,0c.009-.012.017-.024.024-.037l0-.007c.007-.012.013-.024.019-.036l.006-.015c0-.01.009-.02.012-.03s0-.014.007-.022.005-.017.008-.025.005-.025.008-.038l0-.01A.507.507,0,0,0,34.705,53.26ZM19.893,36.086l.58,1.594-1.594.58-.58-1.594Zm3.016,8.287.58,1.594-1.594.58-.58-1.594Zm-6.056,2.2L20.359,45.3l.754,2.072a.507.507,0,0,0,.652.3l2.55-.928a.508.508,0,0,0,.3-.652l-.754-2.071,3.507-1.276L30.737,52,20.585,55.687a4.266,4.266,0,0,0-.631-.589ZM8.213,34.741c0-.008-.007-.016-.01-.024l-.01-.024-.011-.02-.014-.025-.011-.016-.018-.026-.01-.012-.022-.026-.01-.01-.026-.025-.008-.006-.03-.024,0,0-.036-.024h0a.511.511,0,0,0-.23-.068H7.7l-.041,0-.02,0-.03.006-.034.01-.015,0h0L1.509,36.62l-.348-.956,6.05-2.182h0a1.528,1.528,0,0,1,1.956.912l7.262,19.951a4.149,4.149,0,0,0-.956.349Zm12.1,25.095a3.224,3.224,0,1,1,.108-2.464A3.2,3.2,0,0,1,20.313,59.836Zm1.209-2.323a4.311,4.311,0,0,0-.145-.489,4.22,4.22,0,0,0-.2-.468l12.053-4.383.348.956Z" transform="translate(0 -32.371)"/></g></g></g></svg>