<svg xmlns="http://www.w3.org/2000/svg" width="43.993" height="43.993" viewBox="0 0 43.993 43.993"><defs><style>.a{fill:#46bece;}</style></defs><g transform="translate(17.38 17.38)"><path class="a" d="M202.268,228.882h11.844l14.77-14.77V202.268Z" transform="translate(-202.268 -202.268)"/></g><g transform="translate(0 8.308)"><path class="a" d="M6.462,96.686,0,103.148v11.844l12.384-12.384Z" transform="translate(0 -96.686)"/></g><g transform="translate(1.845 23.842)"><path class="a" d="M41.628,277.477,21.477,297.628H33.321L47.55,283.4Z" transform="translate(-21.477 -277.477)"/></g><g transform="translate(32.914 39.377)"><path class="a" d="M387.675,458.268l-4.617,4.617h9.234Z" transform="translate(-383.058 -458.268)"/></g><g transform="translate(39.377 32.914)"><path class="a" d="M458.268,387.675l4.617,4.617v-9.234Z" transform="translate(-458.268 -383.058)"/></g><g transform="translate(8.308)"><path class="a" d="M103.148,0,96.686,6.462l5.922,5.922L114.992,0Z" transform="translate(-96.686)"/></g><g transform="translate(0 32.914)"><path class="a" d="M0,383.058v9.234l4.617-4.617Z" transform="translate(0 -383.058)"/></g><g transform="translate(23.842 1.845)"><path class="a" d="M277.477,41.628,283.4,47.55l14.23-14.23V21.477Z" transform="translate(-277.477 -21.477)"/></g><path class="a" d="M0,0V11.079L11.079,0Z"/><g transform="translate(32.914)"><path class="a" d="M383.058,0l4.617,4.617L392.292,0Z" transform="translate(-383.058)"/></g><g transform="translate(0.54 0.54)"><rect class="a" width="41.328" height="8.375" transform="translate(0 29.223) rotate(-45)"/></g></svg>