<?xml version="1.0" encoding="UTF-8"?>
<svg width="121px" height="249px" viewBox="0 0 121 249" version="1.1" xmlns="http://www.w3.org/2000/svg" xmlns:xlink="http://www.w3.org/1999/xlink">
    <!-- Generator: Sketch 52.3 (67297) - http://www.bohemiancoding.com/sketch -->
    <title>FirstFlor-logo2</title>
    <desc>Created with Sketch.</desc>
    <defs>
        <path d="M4.296875,48 L4.296875,12.2578125 L23.1445312,12.2578125 L23.1445312,16.1396484 L8.54492188,16.1396484 L8.54492188,26.3935547 L23.1445312,26.3935547 L23.1445312,30.3486328 L8.54492188,30.3486328 L8.54492188,48 L4.296875,48 Z M29.6875,48 L29.6875,12.2578125 L33.9355469,12.2578125 L33.9355469,48 L29.6875,48 Z M42.578125,48 L42.578125,12.2578125 L50.9765625,12.2578125 C53.3691526,12.2578125 55.1228785,12.3920885 56.237793,12.6606445 C57.3527074,12.9292006 58.3333291,13.3889941 59.1796875,14.0400391 C60.2376355,14.8701213 61.0595674,15.9809501 61.6455078,17.3725586 C62.2314482,18.7641671 62.5244141,20.3063066 62.5244141,21.9990234 C62.5244141,24.9287256 61.7065511,27.154452 60.0708008,28.6762695 C58.4350504,30.198087 56.0384272,30.9589844 52.8808594,30.9589844 L52.1240234,30.9589844 L65.7714844,48 L60.3759766,48 L47.3388672,30.9589844 L46.7285156,30.9589844 L46.7285156,48 L42.578125,48 Z M46.7285156,15.8466797 L46.7285156,27.8095703 L49.9755859,27.8095703 C53.295915,27.8095703 55.5175725,27.3823285 56.640625,26.527832 C57.7636775,25.6733356 58.3251953,24.1800237 58.3251953,22.0478516 C58.3251953,19.7529182 57.7474016,18.1456752 56.5917969,17.2260742 C55.4361921,16.3064733 53.2308105,15.8466797 49.9755859,15.8466797 L46.7285156,15.8466797 Z M82.3486328,28.1513672 C84.6761184,29.1442107 86.4298444,30.4625569 87.6098633,32.1064453 C88.7898822,33.7503337 89.3798828,35.6953013 89.3798828,37.9414062 C89.3798828,41.2291831 88.3341576,43.8780824 86.2426758,45.8881836 C84.151194,47.8982848 81.3802256,48.9033203 77.9296875,48.9033203 C75.1139182,48.9033203 72.7539158,48.1831127 70.8496094,46.7426758 C68.945303,45.3022389 67.6595085,43.2555471 66.9921875,40.6025391 L70.8496094,38.6982422 C71.3704453,40.8629666 72.2289979,42.5027614 73.425293,43.6176758 C74.621588,44.7325902 76.1230378,45.2900391 77.9296875,45.2900391 C80.0618596,45.2900391 81.7871028,44.6756246 83.1054688,43.4467773 C84.4238347,42.2179301 85.0830078,40.618825 85.0830078,38.6494141 C85.0830078,37.054354 84.6232142,35.6668353 83.7036133,34.4868164 C82.7840123,33.3067975 81.3964937,32.3098999 79.5410156,31.4960938 L75.1953125,29.640625 C72.8189985,28.6477815 71.0489967,27.370125 69.8852539,25.8076172 C68.7215111,24.2451094 68.1396484,22.3733833 68.1396484,20.1923828 C68.1396484,17.6533076 69.0836494,15.5537192 70.9716797,13.8935547 C72.85971,12.2333901 75.26854,11.4033203 78.1982422,11.4033203 C80.3466904,11.4033203 82.2062096,11.8590449 83.7768555,12.7705078 C85.3475013,13.6819707 86.5722612,15.0247307 87.4511719,16.7988281 L83.9355469,19.0449219 C83.1380168,17.6614514 82.2428435,16.6320021 81.25,15.956543 C80.2571565,15.2810839 79.1341208,14.9433594 77.8808594,14.9433594 C76.2857993,14.9433594 74.97966,15.4316357 73.9624023,16.4082031 C72.9451447,17.3847705 72.4365234,18.6298752 72.4365234,20.1435547 C72.4365234,21.4130923 72.8271445,22.5117141 73.6083984,23.4394531 C74.3896523,24.3671921 75.6022053,25.189124 77.2460938,25.9052734 L82.3486328,28.1513672 Z M101.293945,48 L101.293945,16.3105469 L91.1865234,16.3105469 L91.1865234,12.2578125 L115.649414,12.2578125 L115.649414,16.3105469 L105.59082,16.3105469 L105.59082,48 L101.293945,48 Z" id="path-1"></path>
        <path d="M8.97216797,36 L1.84570312,36 L1.84570312,9.61328125 L14.440918,9.61328125 L14.440918,15.8168945 L8.97216797,15.8168945 L8.97216797,19.6621094 L14.0649414,19.6621094 L14.0649414,25.6264648 L8.97216797,25.6264648 L8.97216797,36 Z M29.6850586,36 L17.2094727,36 L17.2094727,9.61328125 L24.3359375,9.61328125 L24.3359375,29.659668 L29.6850586,29.659668 L29.6850586,36 Z M38.7084961,22.805 C38.7084961,23.8550052 38.9068274,24.8233289 39.3034961,25.71 C39.7001647,26.5966711 40.236826,27.3666634 40.9134961,28.02 C41.5901661,28.6733366 42.3776583,29.1808315 43.2759961,29.5425 C44.1743339,29.9041685 45.1251577,30.085 46.1284961,30.085 C47.1318344,30.085 48.0826583,29.9041685 48.9809961,29.5425 C49.8793339,29.1808315 50.6726593,28.6733366 51.3609961,28.02 C52.0493329,27.3666634 52.5918274,26.5966711 52.9884961,25.71 C53.3851647,24.8233289 53.5834961,23.8550052 53.5834961,22.805 C53.5834961,21.7549947 53.3851647,20.7866711 52.9884961,19.9 C52.5918274,19.0133289 52.0493329,18.2433366 51.3609961,17.59 C50.6726593,16.9366634 49.8793339,16.4291685 48.9809961,16.0675 C48.0826583,15.7058315 47.1318344,15.525 46.1284961,15.525 C45.1251577,15.525 44.1743339,15.7058315 43.2759961,16.0675 C42.3776583,16.4291685 41.5901661,16.9366634 40.9134961,17.59 C40.236826,18.2433366 39.7001647,19.0133289 39.3034961,19.9 C38.9068274,20.7866711 38.7084961,21.7549947 38.7084961,22.805 Z M31.5334961,22.805 C31.5334961,20.8449902 31.8951591,19.0191751 32.6184961,17.3275 C33.341833,15.6358249 34.3451563,14.1600063 35.6284961,12.9 C36.9118358,11.6399937 38.4459872,10.6541702 40.2309961,9.9425 C42.016005,9.23082977 43.9818187,8.875 46.1284961,8.875 C48.25184,8.875 50.2118204,9.23082977 52.0084961,9.9425 C53.8051717,10.6541702 55.3509896,11.6399937 56.6459961,12.9 C57.9410026,14.1600063 58.9501591,15.6358249 59.6734961,17.3275 C60.396833,19.0191751 60.7584961,20.8449902 60.7584961,22.805 C60.7584961,24.7650098 60.396833,26.5908249 59.6734961,28.2825 C58.9501591,29.9741751 57.9410026,31.4499937 56.6459961,32.71 C55.3509896,33.9700063 53.8051717,34.9558298 52.0084961,35.6675 C50.2118204,36.3791702 48.25184,36.735 46.1284961,36.735 C43.9818187,36.735 42.016005,36.3791702 40.2309961,35.6675 C38.4459872,34.9558298 36.9118358,33.9700063 35.6284961,32.71 C34.3451563,31.4499937 33.341833,29.9741751 32.6184961,28.2825 C31.8951591,26.5908249 31.5334961,24.7650098 31.5334961,22.805 Z M71.0834961,22.805 C71.0834961,23.8550052 71.2818274,24.8233289 71.6784961,25.71 C72.0751647,26.5966711 72.611826,27.3666634 73.2884961,28.02 C73.9651661,28.6733366 74.7526583,29.1808315 75.6509961,29.5425 C76.5493339,29.9041685 77.5001577,30.085 78.5034961,30.085 C79.5068344,30.085 80.4576583,29.9041685 81.3559961,29.5425 C82.2543339,29.1808315 83.0476593,28.6733366 83.7359961,28.02 C84.4243329,27.3666634 84.9668274,26.5966711 85.3634961,25.71 C85.7601647,24.8233289 85.9584961,23.8550052 85.9584961,22.805 C85.9584961,21.7549947 85.7601647,20.7866711 85.3634961,19.9 C84.9668274,19.0133289 84.4243329,18.2433366 83.7359961,17.59 C83.0476593,16.9366634 82.2543339,16.4291685 81.3559961,16.0675 C80.4576583,15.7058315 79.5068344,15.525 78.5034961,15.525 C77.5001577,15.525 76.5493339,15.7058315 75.6509961,16.0675 C74.7526583,16.4291685 73.9651661,16.9366634 73.2884961,17.59 C72.611826,18.2433366 72.0751647,19.0133289 71.6784961,19.9 C71.2818274,20.7866711 71.0834961,21.7549947 71.0834961,22.805 Z M63.9084961,22.805 C63.9084961,20.8449902 64.2701591,19.0191751 64.9934961,17.3275 C65.716833,15.6358249 66.7201563,14.1600063 68.0034961,12.9 C69.2868358,11.6399937 70.8209872,10.6541702 72.6059961,9.9425 C74.391005,9.23082977 76.3568187,8.875 78.5034961,8.875 C80.62684,8.875 82.5868204,9.23082977 84.3834961,9.9425 C86.1801717,10.6541702 87.7259896,11.6399937 89.0209961,12.9 C90.3160026,14.1600063 91.3251591,15.6358249 92.0484961,17.3275 C92.771833,19.0191751 93.1334961,20.8449902 93.1334961,22.805 C93.1334961,24.7650098 92.771833,26.5908249 92.0484961,28.2825 C91.3251591,29.9741751 90.3160026,31.4499937 89.0209961,32.71 C87.7259896,33.9700063 86.1801717,34.9558298 84.3834961,35.6675 C82.5868204,36.3791702 80.62684,36.735 78.5034961,36.735 C76.3568187,36.735 74.391005,36.3791702 72.6059961,35.6675 C70.8209872,34.9558298 69.2868358,33.9700063 68.0034961,32.71 C66.7201563,31.4499937 65.716833,29.9741751 64.9934961,28.2825 C64.2701591,26.5908249 63.9084961,24.7650098 63.9084961,22.805 Z M115.318848,36 L107.611328,36 L104.09082,26.6005859 C104.05664,26.4410799 103.996827,26.2303073 103.911377,25.9682617 C103.825927,25.7062161 103.720541,25.3929055 103.595215,25.0283203 L103.646484,26.7714844 L103.646484,36 L96.5541992,36 L96.5541992,9.61328125 L103.851562,9.61328125 C107.064469,9.61328125 109.468417,10.2455991 111.063477,11.5102539 C113.091481,13.1281005 114.105469,15.4295098 114.105469,18.4145508 C114.105469,21.6046709 112.743991,23.8092387 110.020996,25.0283203 L115.318848,36 Z M103.680664,21.8325195 L104.15918,21.8325195 C104.979496,21.8325195 105.663083,21.5192089 106.209961,20.8925781 C106.756839,20.2659474 107.030273,19.4684293 107.030273,18.5 C107.030273,16.5289615 105.999197,15.543457 103.937012,15.543457 L103.680664,15.543457 L103.680664,21.8325195 Z" id="path-2"></path>
        <path d="M6.65136719,9.10742188 L4.84667969,9.10742188 L4.19726562,10.9667969 L5.99511719,10.9667969 L6.65136719,9.10742188 Z M6.30273438,5.046875 L5.16796875,8.26660156 L6.9453125,8.26660156 L8.09375,5.046875 L9.07128906,5.046875 L7.95019531,8.26660156 L10.0488281,8.26660156 L9.75488281,9.10742188 L7.62890625,9.10742188 L6.98632812,10.9667969 L9.2421875,10.9667969 L8.94824219,11.8076172 L6.67871094,11.8076172 L5.54394531,15.0136719 L4.55273438,15.0136719 L5.70117188,11.8076172 L3.88964844,11.8076172 L2.74121094,15.0136719 L1.76367188,15.0136719 L2.8984375,11.8076172 L0.7109375,11.8076172 L1.00488281,10.9667969 L3.19238281,10.9667969 L3.84863281,9.10742188 L1.51074219,9.10742188 L1.8046875,8.26660156 L4.15625,8.26660156 L5.3046875,5.046875 L6.30273438,5.046875 Z" id="path-3"></path>
        <path d="M18.0068359,15 L16.7421875,15 L16.7421875,8.64941406 L13.3378906,8.64941406 L13.3378906,15 L12.0664062,15 L12.0664062,7.60351562 L18.0068359,7.60351562 L18.0068359,15 Z M21.4111328,15 L20.1464844,15 L20.1464844,7.60351562 L21.4111328,7.60351562 L21.4111328,15 Z M20.0439453,5.64160156 C20.0439453,5.43652241 20.1066074,5.26334706 20.2319336,5.12207031 C20.3572597,4.98079356 20.5429675,4.91015625 20.7890625,4.91015625 C21.0351575,4.91015625 21.2220046,4.98079356 21.3496094,5.12207031 C21.4772142,5.26334706 21.5410156,5.43652241 21.5410156,5.64160156 C21.5410156,5.84668071 21.4772142,6.01757744 21.3496094,6.15429688 C21.2220046,6.29101631 21.0351575,6.359375 20.7890625,6.359375 C20.5429675,6.359375 20.3572597,6.29101631 20.2319336,6.15429688 C20.1066074,6.01757744 20.0439453,5.84668071 20.0439453,5.64160156 Z M23.3730469,13.9677734 L23.8105469,13.4277344 C24.3027368,12.7897104 24.5830075,11.8326887 24.6513672,10.5566406 L24.7675781,7.60351562 L29.5322266,7.60351562 L29.5322266,13.9677734 L30.4824219,13.9677734 L30.4824219,17.1738281 L29.2177734,17.1738281 L29.2177734,15 L24.0566406,15 L24.0566406,17.1738281 L22.7919922,17.1738281 L22.7988281,13.9677734 L23.3730469,13.9677734 Z M24.8701172,13.9677734 L28.2675781,13.9677734 L28.2675781,8.77246094 L25.9912109,8.77246094 L25.9160156,10.5361328 C25.8385413,12.0081454 25.489912,13.1520142 24.8701172,13.9677734 Z M37.9472656,7.60351562 L37.9472656,15 L36.6757812,15 L36.6757812,8.64941406 L34.1601562,8.64941406 L34.0097656,11.4179688 C33.927734,12.6894595 33.7146827,13.5986301 33.3706055,14.1455078 C33.0265282,14.6923855 32.480798,14.9772134 31.7333984,15 L31.2275391,15 L31.2275391,13.8857422 L31.5898438,13.8583984 C32.0000021,13.8128253 32.2939444,13.5758485 32.4716797,13.1474609 C32.649415,12.7190734 32.7633461,11.9261126 32.8134766,10.7685547 L32.9501953,7.60351562 L37.9472656,7.60351562 Z M39.6425781,11.2333984 C39.6425781,10.5087854 39.7849921,9.85709925 40.0698242,9.27832031 C40.3546564,8.69954138 40.7511368,8.25293126 41.2592773,7.93847656 C41.7674179,7.62402187 42.3473275,7.46679688 42.9990234,7.46679688 C44.0061899,7.46679688 44.8207977,7.8154262 45.4428711,8.51269531 C46.0649445,9.20996442 46.3759766,10.137364 46.3759766,11.2949219 L46.3759766,11.3837891 C46.3759766,12.1038447 46.2381199,12.7498344 45.9624023,13.3217773 C45.6866848,13.8937203 45.292483,14.3391911 44.7797852,14.6582031 C44.2670873,14.9772151 43.6780632,15.1367188 43.0126953,15.1367188 C42.0100861,15.1367188 41.197757,14.7880894 40.5756836,14.0908203 C39.9536102,13.3935512 39.6425781,12.4707089 39.6425781,11.3222656 L39.6425781,11.2333984 Z M40.9140625,11.3837891 C40.9140625,12.2041057 41.1043275,12.8626277 41.4848633,13.359375 C41.865399,13.8561223 42.3746713,14.1044922 43.0126953,14.1044922 C43.6552767,14.1044922 44.1656882,13.8527043 44.5439453,13.3491211 C44.9222024,12.8455378 45.1113281,12.140304 45.1113281,11.2333984 C45.1113281,10.4221965 44.9187845,9.76481372 44.5336914,9.26123047 C44.1485983,8.75764722 43.6370475,8.50585938 42.9990234,8.50585938 C42.3746714,8.50585938 41.8710957,8.75422929 41.4882812,9.25097656 C41.1054668,9.74772384 40.9140625,10.4586542 40.9140625,11.3837891 Z M52.7402344,8.64941406 L49.3291016,8.64941406 L49.3291016,15 L48.0576172,15 L48.0576172,7.60351562 L52.7402344,7.60351562 L52.7402344,8.64941406 Z M58.4003906,15 C58.3274736,14.8541659 58.2682294,14.5944029 58.2226562,14.2207031 C57.6347627,14.8313833 56.9329468,15.1367188 56.1171875,15.1367188 C55.3880172,15.1367188 54.7898786,14.9305034 54.3227539,14.5180664 C53.8556292,14.1056294 53.6220703,13.5826855 53.6220703,12.9492188 C53.6220703,12.1790326 53.9148734,11.5808941 54.5004883,11.1547852 C55.0861032,10.7286763 55.9098254,10.515625 56.9716797,10.515625 L58.2021484,10.515625 L58.2021484,9.93457031 C58.2021484,9.49251081 58.0699883,9.14046355 57.8056641,8.87841797 C57.5413398,8.61637239 57.1516953,8.48535156 56.6367188,8.48535156 C56.1855446,8.48535156 55.8072932,8.59928271 55.5019531,8.82714844 C55.1966131,9.05501416 55.0439453,9.33072755 55.0439453,9.65429688 L53.7724609,9.65429688 C53.7724609,9.2851544 53.9034818,8.9285499 54.1655273,8.58447266 C54.4275729,8.24039542 54.7830381,7.96809996 55.2319336,7.76757812 C55.6808291,7.56705629 56.174151,7.46679688 56.7119141,7.46679688 C57.5641319,7.46679688 58.2317684,7.67984813 58.7148438,8.10595703 C59.1979191,8.53206593 59.4485676,9.11881137 59.4667969,9.86621094 L59.4667969,13.2705078 C59.4667969,13.9495477 59.5533846,14.4895813 59.7265625,14.890625 L59.7265625,15 L58.4003906,15 Z M56.3017578,14.0361328 C56.6982442,14.0361328 57.074217,13.9335948 57.4296875,13.7285156 C57.785158,13.5234365 58.0426424,13.2568376 58.2021484,12.9287109 L58.2021484,11.4111328 L57.2109375,11.4111328 C55.6614506,11.4111328 54.8867188,11.8645788 54.8867188,12.7714844 C54.8867188,13.1679707 55.0188789,13.4778635 55.2832031,13.7011719 C55.5475274,13.9244803 55.8870422,14.0361328 56.3017578,14.0361328 Z M67.4990234,15 L66.234375,15 L66.234375,8.64941406 L62.8300781,8.64941406 L62.8300781,15 L61.5585938,15 L61.5585938,7.60351562 L67.4990234,7.60351562 L67.4990234,15 Z M70.9033203,15 L69.6386719,15 L69.6386719,7.60351562 L70.9033203,7.60351562 L70.9033203,15 Z M69.5361328,5.64160156 C69.5361328,5.43652241 69.5987949,5.26334706 69.7241211,5.12207031 C69.8494472,4.98079356 70.035155,4.91015625 70.28125,4.91015625 C70.527345,4.91015625 70.7141921,4.98079356 70.8417969,5.12207031 C70.9694017,5.26334706 71.0332031,5.43652241 71.0332031,5.64160156 C71.0332031,5.84668071 70.9694017,6.01757744 70.8417969,6.15429688 C70.7141921,6.29101631 70.527345,6.359375 70.28125,6.359375 C70.035155,6.359375 69.8494472,6.29101631 69.7241211,6.15429688 C69.5987949,6.01757744 69.5361328,5.84668071 69.5361328,5.64160156 Z M72.8652344,13.9677734 L73.3027344,13.4277344 C73.7949243,12.7897104 74.075195,11.8326887 74.1435547,10.5566406 L74.2597656,7.60351562 L79.0244141,7.60351562 L79.0244141,13.9677734 L79.9746094,13.9677734 L79.9746094,17.1738281 L78.7099609,17.1738281 L78.7099609,15 L73.5488281,15 L73.5488281,17.1738281 L72.2841797,17.1738281 L72.2910156,13.9677734 L72.8652344,13.9677734 Z M74.3623047,13.9677734 L77.7597656,13.9677734 L77.7597656,8.77246094 L75.4833984,8.77246094 L75.4082031,10.5361328 C75.3307288,12.0081454 74.9820995,13.1520142 74.3623047,13.9677734 Z M83.6796875,11.8486328 L82.7568359,11.8486328 L82.7568359,15 L81.4853516,15 L81.4853516,7.60351562 L82.7568359,7.60351562 L82.7568359,10.734375 L83.5839844,10.734375 L86.0722656,7.60351562 L87.6035156,7.60351562 L84.6777344,11.1582031 L87.8496094,15 L86.2431641,15 L83.6796875,11.8486328 Z M95,7.60351562 L95,15 L93.7285156,15 L93.7285156,8.64941406 L91.2128906,8.64941406 L91.0625,11.4179688 C90.9804683,12.6894595 90.7674171,13.5986301 90.4233398,14.1455078 C90.0792626,14.6923855 89.5335324,14.9772134 88.7861328,15 L88.2802734,15 L88.2802734,13.8857422 L88.6425781,13.8583984 C89.0527364,13.8128253 89.3466788,13.5758485 89.5244141,13.1474609 C89.7021493,12.7190734 89.8160805,11.9261126 89.8662109,10.7685547 L90.0029297,7.60351562 L95,7.60351562 Z M98.4111328,10.7412109 L100.188477,10.7412109 C100.28418,9.75683102 100.633949,8.96500951 101.237793,8.36572266 C101.841637,7.76643581 102.603837,7.46679688 103.524414,7.46679688 C104.490565,7.46679688 105.281247,7.79263997 105.896484,8.44433594 C106.511722,9.0960319 106.844401,9.94367968 106.894531,10.9873047 L106.901367,11.3837891 C106.901367,12.1038447 106.760093,12.7532523 106.477539,13.3320312 C106.194986,13.9108102 105.798505,14.356281 105.288086,14.668457 C104.777667,14.9806331 104.194339,15.1367188 103.538086,15.1367188 C102.585607,15.1367188 101.806318,14.8256867 101.200195,14.2036133 C100.594072,13.5815399 100.254558,12.773768 100.181641,11.7802734 L98.4111328,11.7802734 L98.4111328,15 L97.1464844,15 L97.1464844,7.60351562 L98.4111328,7.60351562 L98.4111328,10.7412109 Z M101.432617,11.3837891 C101.432617,12.2041057 101.622882,12.8626277 102.003418,13.359375 C102.383954,13.8561223 102.895505,14.1044922 103.538086,14.1044922 C104.180667,14.1044922 104.68994,13.851565 105.065918,13.3457031 C105.441896,12.8398412 105.629883,12.1357467 105.629883,11.2333984 C105.629883,10.4267538 105.438478,9.77051034 105.055664,9.26464844 C104.67285,8.75878653 104.162438,8.50585938 103.524414,8.50585938 C102.895505,8.50585938 102.38965,8.75422929 102.006836,9.25097656 C101.624022,9.74772384 101.432617,10.4586542 101.432617,11.3837891 Z M114.038086,15 L112.766602,15 L112.766602,12.3203125 C112.210609,12.4661466 111.640953,12.5390625 111.057617,12.5390625 C110.132482,12.5390625 109.427249,12.3020857 108.941895,11.828125 C108.456541,11.3541643 108.20931,10.6796919 108.200195,9.8046875 L108.200195,7.59667969 L109.464844,7.59667969 L109.464844,9.84570312 C109.48763,10.9485732 110.018549,11.5 111.057617,11.5 C111.640953,11.5 112.210609,11.4270841 112.766602,11.28125 L112.766602,7.60351562 L114.038086,7.60351562 L114.038086,15 Z" id="path-4"></path>
    </defs>
    <g id="Page-1" stroke="none" stroke-width="1" fill="none" fill-rule="evenodd">
        <g id="FirstFlor-logo2" transform="translate(-1.000000, 0.000000)">
            <g id="icon" transform="translate(7.796000, 0.000000)">
                <path d="M57.263,0 C88.3339877,1.90254928e-15 113.522,25.1880123 113.522,56.259 C113.571,56.381 114.392,56.024 57.263,56.259 C0.134,56.494 0.979,56.279 1.004,56.259 C1.004,25.1880123 26.1920123,5.70764785e-15 57.263,0 Z" id="Path_15" fill="#46BECE"></path>
                <path d="M57.263,116.037 C88.3339877,116.037 113.522,90.8489877 113.522,59.778 C113.571,59.656 114.392,60.013 57.263,59.778 C0.134,59.543 0.979,59.758 1.002,59.778 C1.00199999,74.699161 6.92954501,89.0091609 17.4805867,99.5598275 C28.0316284,110.110494 42.341839,116.03753 57.263,116.037 Z" id="Path_16" fill="#FFC400"></path>
                <polygon id="Path_17" fill="#FFFFFF" points="33.649 59.669 40.631 59.669 14.327 97.448 10.56 91.392"></polygon>
                <polygon id="Path_19" fill="#FFFFFF" points="54.771 59.669 61.35 59.669 61.35 116.037 54.771 116.037"></polygon>
                <polygon id="Path_20" fill="#FFFFFF" points="84.338 59.669 77.356 59.669 103.656 97.448 107.423 91.391"></polygon>
            </g>
            <g id="FIRST_FLOОR" transform="translate(0.000000, 141.368000)">
                <g id="Group">
                    <g id="FIRST">
                        <use fill="#000000" xlink:href="#path-1"></use>
                        <use fill="#46BECE" xlink:href="#path-1"></use>
                    </g>
                </g>
                <g id="Group" transform="translate(2.000000, 47.000000)">
                    <g id="FLООR">
                        <use fill="#000000" xlink:href="#path-2"></use>
                        <use fill="#1F1F1F" xlink:href="#path-2"></use>
                    </g>
                </g>
            </g>
            <g id="_підлогапідключ" transform="translate(0.946000, 231.797000)">
                <g id="#">
                    <use fill="#000000" xlink:href="#path-3"></use>
                    <use fill="#3C3C3C" xlink:href="#path-3"></use>
                </g>
                <g id="підлогапідключ">
                    <use fill="#000000" xlink:href="#path-4"></use>
                    <use fill="#3C3C3C" xlink:href="#path-4"></use>
                </g>
            </g>
        </g>
    </g>
</svg>