<?xml version="1.0" encoding="UTF-8"?>
<svg width="200px" height="81px" viewBox="0 0 200 81" version="1.1" xmlns="http://www.w3.org/2000/svg" xmlns:xlink="http://www.w3.org/1999/xlink">
    <!-- Generator: Sketch 52.3 (67297) - http://www.bohemiancoding.com/sketch -->
    <title>FirstFlor-logo</title>
    <desc>Created with Sketch.</desc>
    <g id="Page-1" stroke="none" stroke-width="1" fill="none" fill-rule="evenodd">
        <g id="FirstFlor-logo">
            <g id="icon" transform="translate(0.000000, 0.697000)">
                <path d="M38.619,0 C59.9465802,1.30593764e-15 77.236,17.2894198 77.236,38.617 C77.27,38.701 77.836,38.455 38.619,38.617 C-0.598,38.779 -0.014,38.63 0.002,38.617 C0.002,17.2894198 17.2914198,3.91781292e-15 38.619,0 Z" id="Path_15" fill="#46BECE"></path>
                <path d="M38.619,79.649 C59.9465802,79.649 77.236,62.3595802 77.236,41.032 C77.27,40.948 77.836,41.194 38.619,41.032 C-0.598,40.87 -0.014,41.018 0.002,41.032 C0.002,62.3595802 17.2914198,79.649 38.619,79.649 Z" id="Path_16" fill="#FFC400"></path>
                <polygon id="Path_17" fill="#FFFFFF" points="22.41 40.957 27.203 40.957 9.147 66.889 6.562 62.732"></polygon>
                <polygon id="Path_19" fill="#FFFFFF" points="36.909 40.957 41.425 40.957 41.425 79.649 36.909 79.649"></polygon>
                <polygon id="Path_20" fill="#FFFFFF" points="57.204 40.957 52.412 40.957 70.467 66.889 73.053 62.732"></polygon>
            </g>
            <g id="FIRST_FLOОR" transform="translate(94.417000, 5.000000)" fill-rule="nonzero">
                <g id="Group" transform="translate(1.000000, 0.000000)">
                    <g id="FIRST">
                        <g id="path-1-link" fill="#000000">
                            <path d="M0.75,24 L0.75,1.125 L12.8125,1.125 L12.8125,3.609375 L3.46875,3.609375 L3.46875,10.171875 L12.8125,10.171875 L12.8125,12.703125 L3.46875,12.703125 L3.46875,24 L0.75,24 Z M17,24 L17,1.125 L19.71875,1.125 L19.71875,24 L17,24 Z M25.25,24 L25.25,1.125 L30.625,1.125 C32.1562577,1.125 33.2786423,1.21093664 33.9921875,1.3828125 C34.7057327,1.55468836 35.3333306,1.84895625 35.875,2.265625 C36.5520867,2.79687766 37.0781231,3.507808 37.453125,4.3984375 C37.8281269,5.289067 38.015625,6.2760362 38.015625,7.359375 C38.015625,9.2343844 37.4921927,10.6588493 36.4453125,11.6328125 C35.3984323,12.6067757 33.8645934,13.09375 31.84375,13.09375 L31.359375,13.09375 L40.09375,24 L36.640625,24 L28.296875,13.09375 L27.90625,13.09375 L27.90625,24 L25.25,24 Z M27.90625,3.421875 L27.90625,11.078125 L29.984375,11.078125 C32.1093856,11.078125 33.5312464,10.8046902 34.25,10.2578125 C34.9687536,9.7109348 35.328125,8.7552152 35.328125,7.390625 C35.328125,5.9218677 34.958337,4.8932321 34.21875,4.3046875 C33.479163,3.7161429 32.0677187,3.421875 29.984375,3.421875 L27.90625,3.421875 Z M50.703125,11.296875 C52.1927158,11.9322948 53.3151004,12.7760364 54.0703125,13.828125 C54.8255246,14.8802136 55.203125,16.1249928 55.203125,17.5625 C55.203125,19.6666772 54.5338609,21.3619727 53.1953125,22.6484375 C51.8567641,23.9349023 50.0833444,24.578125 47.875,24.578125 C46.0729077,24.578125 44.5625061,24.1171921 43.34375,23.1953125 C42.1249939,22.2734329 41.3020855,20.9635502 40.875,19.265625 L43.34375,18.046875 C43.677085,19.4322986 44.2265587,20.4817673 44.9921875,21.1953125 C45.7578163,21.9088577 46.7187442,22.265625 47.875,22.265625 C49.2395902,22.265625 50.3437458,21.8723998 51.1875,21.0859375 C52.0312542,20.2994752 52.453125,19.276048 52.453125,18.015625 C52.453125,16.9947866 52.1588571,16.1067746 51.5703125,15.3515625 C50.9817679,14.5963504 50.0937559,13.9583359 48.90625,13.4375 L46.125,12.25 C44.6041591,11.6145802 43.4713579,10.79688 42.7265625,9.796875 C41.9817671,8.79687 41.609375,7.5989653 41.609375,6.203125 C41.609375,4.5781169 42.2135356,3.2343803 43.421875,2.171875 C44.6302144,1.10936969 46.1718656,0.578125 48.046875,0.578125 C49.4218819,0.578125 50.6119741,0.86978875 51.6171875,1.453125 C52.6224009,2.03646125 53.4062472,2.89582766 53.96875,4.03125 L51.71875,5.46875 C51.2083308,4.5833289 50.6354198,3.9244813 50,3.4921875 C49.3645802,3.0598937 48.6458373,2.84375 47.84375,2.84375 C46.8229116,2.84375 45.9869824,3.1562469 45.3359375,3.78125 C44.6848926,4.4062531 44.359375,5.2031202 44.359375,6.171875 C44.359375,6.9843791 44.6093725,7.687497 45.109375,8.28125 C45.6093775,8.875003 46.3854114,9.4010394 47.4375,9.859375 L50.703125,11.296875 Z M62.828125,24 L62.828125,3.71875 L56.359375,3.71875 L56.359375,1.125 L72.015625,1.125 L72.015625,3.71875 L65.578125,3.71875 L65.578125,24 L62.828125,24 Z" id="path-1"></path>
                        </g>
                        <g id="path-1-link" fill="#46BECE">
                            <path d="M0.75,24 L0.75,1.125 L12.8125,1.125 L12.8125,3.609375 L3.46875,3.609375 L3.46875,10.171875 L12.8125,10.171875 L12.8125,12.703125 L3.46875,12.703125 L3.46875,24 L0.75,24 Z M17,24 L17,1.125 L19.71875,1.125 L19.71875,24 L17,24 Z M25.25,24 L25.25,1.125 L30.625,1.125 C32.1562577,1.125 33.2786423,1.21093664 33.9921875,1.3828125 C34.7057327,1.55468836 35.3333306,1.84895625 35.875,2.265625 C36.5520867,2.79687766 37.0781231,3.507808 37.453125,4.3984375 C37.8281269,5.289067 38.015625,6.2760362 38.015625,7.359375 C38.015625,9.2343844 37.4921927,10.6588493 36.4453125,11.6328125 C35.3984323,12.6067757 33.8645934,13.09375 31.84375,13.09375 L31.359375,13.09375 L40.09375,24 L36.640625,24 L28.296875,13.09375 L27.90625,13.09375 L27.90625,24 L25.25,24 Z M27.90625,3.421875 L27.90625,11.078125 L29.984375,11.078125 C32.1093856,11.078125 33.5312464,10.8046902 34.25,10.2578125 C34.9687536,9.7109348 35.328125,8.7552152 35.328125,7.390625 C35.328125,5.9218677 34.958337,4.8932321 34.21875,4.3046875 C33.479163,3.7161429 32.0677187,3.421875 29.984375,3.421875 L27.90625,3.421875 Z M50.703125,11.296875 C52.1927158,11.9322948 53.3151004,12.7760364 54.0703125,13.828125 C54.8255246,14.8802136 55.203125,16.1249928 55.203125,17.5625 C55.203125,19.6666772 54.5338609,21.3619727 53.1953125,22.6484375 C51.8567641,23.9349023 50.0833444,24.578125 47.875,24.578125 C46.0729077,24.578125 44.5625061,24.1171921 43.34375,23.1953125 C42.1249939,22.2734329 41.3020855,20.9635502 40.875,19.265625 L43.34375,18.046875 C43.677085,19.4322986 44.2265587,20.4817673 44.9921875,21.1953125 C45.7578163,21.9088577 46.7187442,22.265625 47.875,22.265625 C49.2395902,22.265625 50.3437458,21.8723998 51.1875,21.0859375 C52.0312542,20.2994752 52.453125,19.276048 52.453125,18.015625 C52.453125,16.9947866 52.1588571,16.1067746 51.5703125,15.3515625 C50.9817679,14.5963504 50.0937559,13.9583359 48.90625,13.4375 L46.125,12.25 C44.6041591,11.6145802 43.4713579,10.79688 42.7265625,9.796875 C41.9817671,8.79687 41.609375,7.5989653 41.609375,6.203125 C41.609375,4.5781169 42.2135356,3.2343803 43.421875,2.171875 C44.6302144,1.10936969 46.1718656,0.578125 48.046875,0.578125 C49.4218819,0.578125 50.6119741,0.86978875 51.6171875,1.453125 C52.6224009,2.03646125 53.4062472,2.89582766 53.96875,4.03125 L51.71875,5.46875 C51.2083308,4.5833289 50.6354198,3.9244813 50,3.4921875 C49.3645802,3.0598937 48.6458373,2.84375 47.84375,2.84375 C46.8229116,2.84375 45.9869824,3.1562469 45.3359375,3.78125 C44.6848926,4.4062531 44.359375,5.2031202 44.359375,6.171875 C44.359375,6.9843791 44.6093725,7.687497 45.109375,8.28125 C45.6093775,8.875003 46.3854114,9.4010394 47.4375,9.859375 L50.703125,11.296875 Z M62.828125,24 L62.828125,3.71875 L56.359375,3.71875 L56.359375,1.125 L72.015625,1.125 L72.015625,3.71875 L65.578125,3.71875 L65.578125,24 L62.828125,24 Z" id="path-1"></path>
                        </g>
                    </g>
                </g>
                <g id="Group" transform="translate(0.000000, 27.000000)" fill="#1F1F1F">
                    <g id="FLOОR">
                        <g id="path-2-link">
                            <path d="M7.203125,25 L0.6875,25 L0.6875,0.875 L12.203125,0.875 L12.203125,6.546875 L7.203125,6.546875 L7.203125,10.0625 L11.859375,10.0625 L11.859375,15.515625 L7.203125,15.515625 L7.203125,25 Z M26.140625,25 L14.734375,25 L14.734375,0.875 L21.25,0.875 L21.25,19.203125 L26.140625,19.203125 L26.140625,25 Z M45.71875,13.015625 C45.71875,16.6927267 44.8802167,19.6822802 43.203125,21.984375 C41.53645,24.2760531 39.3645967,25.421875 36.6875,25.421875 C34.3124881,25.421875 32.2760502,24.5416755 30.578125,22.78125 C28.4426977,20.5520722 27.375,17.2083556 27.375,12.75 C27.375,8.4791453 28.4895722,5.213553 30.71875,2.953125 C32.3750083,1.27603328 34.3385303,0.4375 36.609375,0.4375 C39.3906389,0.4375 41.6041584,1.57290531 43.25,3.84375 C44.8958416,6.1145947 45.71875,9.1718558 45.71875,13.015625 Z M38.953125,13.0625 C38.953125,8.6978948 38.1822994,6.515625 36.640625,6.515625 C35.8697878,6.515625 35.2552106,7.0885359 34.796875,8.234375 C34.3489561,9.2968803 34.125,10.8593647 34.125,12.921875 C34.125,14.9531352 34.3359354,16.5286402 34.7578125,17.6484375 C35.1796896,18.7682348 35.7656213,19.328125 36.515625,19.328125 C37.2864622,19.328125 37.8802063,18.7760472 38.296875,17.671875 C38.7343772,16.5677028 38.953125,15.0312598 38.953125,13.0625 Z M67.03125,14.015625 C67.03125,17.6927267 66.1927167,20.6822802 64.515625,22.984375 C62.84895,25.2760531 60.6770967,26.421875 58,26.421875 C55.6249881,26.421875 53.5885502,25.5416755 51.890625,23.78125 C49.7551977,21.5520722 48.6875,18.2083556 48.6875,13.75 C48.6875,9.4791453 49.8020722,6.213553 52.03125,3.953125 C53.6875083,2.27603328 55.6510303,1.4375 57.921875,1.4375 C60.7031389,1.4375 62.9166584,2.57290531 64.5625,4.84375 C66.2083416,7.1145947 67.03125,10.1718558 67.03125,14.015625 Z M60.515625,13.984375 C60.515625,9.6197698 59.7447994,7.4375 58.203125,7.4375 C57.4322878,7.4375 56.8177106,8.0104109 56.359375,9.15625 C55.9114561,10.2187553 55.6875,11.7812397 55.6875,13.84375 C55.6875,15.8750102 55.8984354,17.4505152 56.3203125,18.5703125 C56.7421896,19.6901098 57.3281213,20.25 58.078125,20.25 C58.8489622,20.25 59.4427063,19.6979222 59.859375,18.59375 C60.2968772,17.4895778 60.515625,15.9531348 60.515625,13.984375 Z M88,25 L80.953125,25 L77.734375,16.40625 C77.7031248,16.2604159 77.6484379,16.0677095 77.5703125,15.828125 C77.4921871,15.5885405 77.3958339,15.302085 77.28125,14.96875 L77.328125,16.5625 L77.328125,25 L70.84375,25 L70.84375,0.875 L77.515625,0.875 C80.4531397,0.875 82.6510344,1.45311922 84.109375,2.609375 C85.9635509,4.0885491 86.890625,6.1926947 86.890625,8.921875 C86.890625,11.8385562 85.6458458,13.8541611 83.15625,14.96875 L88,25 Z M77.359375,12.046875 L77.796875,12.046875 C78.5468788,12.046875 79.1718725,11.7604195 79.671875,11.1875 C80.1718775,10.6145805 80.421875,9.8854211 80.421875,9 C80.421875,7.1979077 79.4791761,6.296875 77.59375,6.296875 L77.359375,6.296875 L77.359375,12.046875 Z" id="path-2"></path>
                        </g>
                    </g>
                </g>
            </g>
            <g id="_підлогапідключ" transform="translate(93.463000, 65.077000)" fill-rule="nonzero">
                <g id="#" transform="translate(0.000000, 1.000000)">
                    <g id="path-3-link" fill="#000000">
                        <path d="M6.17626953,4.52832031 L4.50048828,4.52832031 L3.89746094,6.2548828 L5.56689453,6.2548828 L6.17626953,4.52832031 Z M5.85253906,0.7578125 L4.79882812,3.74755859 L6.44921875,3.74755859 L7.515625,0.7578125 L8.42333984,0.7578125 L7.38232422,3.74755859 L9.33105469,3.74755859 L9.05810547,4.52832031 L7.08398438,4.52832031 L6.48730469,6.2548828 L8.58203125,6.2548828 L8.30908203,7.0356445 L6.20166016,7.0356445 L5.14794922,10.0126953 L4.22753906,10.0126953 L5.29394531,7.0356445 L3.61181641,7.0356445 L2.54541016,10.0126953 L1.63769531,10.0126953 L2.69140625,7.0356445 L0.66015625,7.0356445 L0.933105469,6.2548828 L2.96435547,6.2548828 L3.57373047,4.52832031 L1.40283203,4.52832031 L1.67578125,3.74755859 L3.859375,3.74755859 L4.92578125,0.7578125 L5.85253906,0.7578125 Z" id="path-3"></path>
                    </g>
                    <g id="path-3-link" fill="#3C3C3C">
                        <path d="M6.17626953,4.52832031 L4.50048828,4.52832031 L3.89746094,6.2548828 L5.56689453,6.2548828 L6.17626953,4.52832031 Z M5.85253906,0.7578125 L4.79882812,3.74755859 L6.44921875,3.74755859 L7.515625,0.7578125 L8.42333984,0.7578125 L7.38232422,3.74755859 L9.33105469,3.74755859 L9.05810547,4.52832031 L7.08398438,4.52832031 L6.48730469,6.2548828 L8.58203125,6.2548828 L8.30908203,7.0356445 L6.20166016,7.0356445 L5.14794922,10.0126953 L4.22753906,10.0126953 L5.29394531,7.0356445 L3.61181641,7.0356445 L2.54541016,10.0126953 L1.63769531,10.0126953 L2.69140625,7.0356445 L0.66015625,7.0356445 L0.933105469,6.2548828 L2.96435547,6.2548828 L3.57373047,4.52832031 L1.40283203,4.52832031 L1.67578125,3.74755859 L3.859375,3.74755859 L4.92578125,0.7578125 L5.85253906,0.7578125 Z" id="path-3"></path>
                    </g>
                </g>
                <g id="підлогапідключ" transform="translate(10.000000, 0.000000)">
                    <g id="path-4-link" fill="#000000">
                        <path d="M6.5063477,10 L5.3320312,10 L5.3320312,4.10302734 L2.1708984,4.10302734 L2.1708984,10 L0.9902344,10 L0.9902344,3.13183594 L6.5063477,3.13183594 L6.5063477,10 Z M9.6674805,10 L8.4931641,10 L8.4931641,3.13183594 L9.6674805,3.13183594 L9.6674805,10 Z M8.3979492,1.31005859 C8.3979492,1.11962795 8.4561355,0.95882227 8.5725098,0.82763672 C8.688884,0.69645117 8.861327,0.63085938 9.0898438,0.63085938 C9.3183605,0.63085938 9.4918614,0.69645117 9.6103516,0.82763672 C9.7288417,0.95882227 9.7880859,1.11962795 9.7880859,1.31005859 C9.7880859,1.50048923 9.7288417,1.65917905 9.6103516,1.78613281 C9.4918614,1.91308657 9.3183605,1.9765625 9.0898438,1.9765625 C8.861327,1.9765625 8.688884,1.91308657 8.5725098,1.78613281 C8.4561355,1.65917905 8.3979492,1.50048923 8.3979492,1.31005859 Z M11.4892578,9.0415039 L11.8955078,8.5400391 C12.3525413,7.9475882 12.6127927,7.0589252 12.6762695,5.87402344 L12.7841797,3.13183594 L17.2084961,3.13183594 L17.2084961,9.0415039 L18.0908203,9.0415039 L18.0908203,12.0185547 L16.9165039,12.0185547 L16.9165039,10 L12.1240234,10 L12.1240234,12.0185547 L10.949707,12.0185547 L10.9560547,9.0415039 L11.4892578,9.0415039 Z M12.8793945,9.0415039 L16.0341797,9.0415039 L16.0341797,4.21728516 L13.9204102,4.21728516 L13.8505859,5.85498047 C13.7786455,7.2218493 13.4549182,8.2840131 12.8793945,9.0415039 Z M25.0224609,3.13183594 L25.0224609,10 L23.8417969,10 L23.8417969,4.10302734 L21.5058594,4.10302734 L21.3662109,6.6738281 C21.2900387,7.8544981 21.0922054,8.6987279 20.7727051,9.206543 C20.4532048,9.714358 19.9464553,9.978841 19.2524414,10 L18.7827148,10 L18.7827148,8.965332 L19.1191406,8.9399414 C19.5000019,8.8976235 19.7729484,8.6775736 19.9379883,8.2797852 C20.1030282,7.8819967 20.2088214,7.1456759 20.2553711,6.0708008 L20.3823242,3.13183594 L25.0224609,3.13183594 Z M26.5966797,6.5024414 C26.5966797,5.82958648 26.7289212,5.2244493 26.9934082,4.68701172 C27.2578952,4.14957414 27.6260556,3.73486474 28.0979004,3.44287109 C28.5697452,3.15087745 29.1082327,3.00488281 29.7133789,3.00488281 C30.6486049,3.00488281 31.4050264,3.32861004 31.982666,3.97607422 C32.5603056,4.62353839 32.8491211,5.48469515 32.8491211,6.5595703 L32.8491211,6.6420898 C32.8491211,7.310713 32.7211113,7.9105605 32.4650879,8.4416504 C32.2090645,8.9727403 31.84302,9.3863917 31.3669434,9.6826172 C30.8908668,9.9788426 30.3439158,10.1269531 29.7260742,10.1269531 C28.79508,10.1269531 28.0407744,9.8032259 27.4631348,9.1557617 C26.8854952,8.5082975 26.5966797,7.6513725 26.5966797,6.5849609 L26.5966797,6.5024414 Z M27.7773438,6.6420898 C27.7773438,7.4038124 27.9540184,8.0152972 28.307373,8.4765625 C28.6607277,8.9378278 29.1336233,9.168457 29.7260742,9.168457 C30.3227569,9.168457 30.7967105,8.934654 31.1479492,8.467041 C31.499188,7.999428 31.6748047,7.344568 31.6748047,6.5024414 C31.6748047,5.74918243 31.4960142,5.13875559 31.1384277,4.67114258 C30.7808413,4.20352956 30.3058298,3.96972656 29.7133789,3.96972656 C29.1336234,3.96972656 28.6660174,4.20035577 28.3105469,4.66162109 C27.9550763,5.12288642 27.7773438,5.78303607 27.7773438,6.6420898 Z M38.7587891,4.10302734 L35.5913086,4.10302734 L35.5913086,10 L34.4106445,10 L34.4106445,3.13183594 L38.7587891,3.13183594 L38.7587891,4.10302734 Z M44.0146484,10 C43.9469398,9.8645827 43.8919273,9.6233741 43.8496094,9.2763672 C43.3037082,9.8434273 42.652022,10.1269531 41.8945312,10.1269531 C41.2174445,10.1269531 40.6620302,9.9354674 40.2282715,9.5524902 C39.7945128,9.1695131 39.5776367,8.6839222 39.5776367,8.0957031 C39.5776367,7.3805303 39.8495253,6.8251159 40.3933105,6.4294434 C40.9370958,6.0337708 41.7019807,5.8359375 42.6879883,5.8359375 L43.8305664,5.8359375 L43.8305664,5.29638672 C43.8305664,4.8859029 43.7078463,4.55900187 43.4624023,4.31567383 C43.2169584,4.07234579 42.8551456,3.95068359 42.3769531,3.95068359 C41.9580057,3.95068359 41.6067723,4.05647681 41.3232422,4.26806641 C41.0397121,4.47965601 40.8979492,4.73567558 40.8979492,5.03613281 L39.7172852,5.03613281 C39.7172852,4.69335766 39.8389474,4.3622249 40.0822754,4.04272461 C40.3256034,3.72322431 40.6556783,3.47037854 41.0725098,3.28417969 C41.4893413,3.09798084 41.9474259,3.00488281 42.4467773,3.00488281 C43.2381224,3.00488281 43.8580707,3.20271612 44.3066406,3.59838867 C44.7552106,3.99406122 44.9879556,4.53889627 45.0048828,5.23291016 L45.0048828,8.394043 C45.0048828,9.02458 45.0852857,9.5260398 45.2460938,9.8984375 L45.2460938,10 L44.0146484,10 Z M42.065918,9.1049805 C42.4340839,9.1049805 42.7832015,9.0097666 43.1132812,8.8193359 C43.443361,8.6289053 43.6824537,8.3813492 43.8305664,8.0766602 L43.8305664,6.6674805 L42.9101562,6.6674805 C41.471347,6.6674805 40.7519531,7.0885375 40.7519531,7.9306641 C40.7519531,8.29883 40.8746733,8.5865875 41.1201172,8.7939453 C41.3655611,9.0013031 41.6808249,9.1049805 42.065918,9.1049805 Z M52.4633789,10 L51.2890625,10 L51.2890625,4.10302734 L48.1279297,4.10302734 L48.1279297,10 L46.9472656,10 L46.9472656,3.13183594 L52.4633789,3.13183594 L52.4633789,10 Z M55.6245117,10 L54.4501953,10 L54.4501953,3.13183594 L55.6245117,3.13183594 L55.6245117,10 Z M54.3549805,1.31005859 C54.3549805,1.11962795 54.4131667,0.95882227 54.529541,0.82763672 C54.6459153,0.69645117 54.8183582,0.63085938 55.046875,0.63085938 C55.2753918,0.63085938 55.4488926,0.69645117 55.5673828,0.82763672 C55.685873,0.95882227 55.7451172,1.11962795 55.7451172,1.31005859 C55.7451172,1.50048923 55.685873,1.65917905 55.5673828,1.78613281 C55.4488926,1.91308657 55.2753918,1.9765625 55.046875,1.9765625 C54.8183582,1.9765625 54.6459153,1.91308657 54.529541,1.78613281 C54.4131667,1.65917905 54.3549805,1.50048923 54.3549805,1.31005859 Z M57.4462891,9.0415039 L57.8525391,8.5400391 C58.3095726,7.9475882 58.5698239,7.0589252 58.6333008,5.87402344 L58.7412109,3.13183594 L63.1655273,3.13183594 L63.1655273,9.0415039 L64.0478516,9.0415039 L64.0478516,12.0185547 L62.8735352,12.0185547 L62.8735352,10 L58.0810547,10 L58.0810547,12.0185547 L56.9067383,12.0185547 L56.9130859,9.0415039 L57.4462891,9.0415039 Z M58.8364258,9.0415039 L61.9912109,9.0415039 L61.9912109,4.21728516 L59.8774414,4.21728516 L59.8076172,5.85498047 C59.7356767,7.2218493 59.4119495,8.2840131 58.8364258,9.0415039 Z M67.4882812,7.0737305 L66.6313477,7.0737305 L66.6313477,10 L65.4506836,10 L65.4506836,3.13183594 L66.6313477,3.13183594 L66.6313477,6.0390625 L67.3994141,6.0390625 L69.7099609,3.13183594 L71.1318359,3.13183594 L68.4150391,6.4326172 L71.3603516,10 L69.8686523,10 L67.4882812,7.0737305 Z M78,3.13183594 L78,10 L76.8193359,10 L76.8193359,4.10302734 L74.4833984,4.10302734 L74.34375,6.6738281 C74.2675777,7.8544981 74.0697444,8.6987279 73.7502441,9.206543 C73.4307438,9.714358 72.9239944,9.978841 72.2299805,10 L71.7602539,10 L71.7602539,8.965332 L72.0966797,8.9399414 C72.477541,8.8976235 72.7504875,8.6775736 72.9155273,8.2797852 C73.0805672,7.8819967 73.1863604,7.1456759 73.2329102,6.0708008 L73.3598633,3.13183594 L78,3.13183594 Z M81.1674805,6.0454102 L82.8178711,6.0454102 C82.9067387,5.13134309 83.2315239,4.39608026 83.7922363,3.83959961 C84.3529488,3.28311896 85.0607054,3.00488281 85.9155273,3.00488281 C86.8126672,3.00488281 87.5468721,3.3074514 88.1181641,3.91259766 C88.689456,4.51774391 88.9983722,5.30484542 89.0449219,6.2739258 L89.0512695,6.6420898 C89.0512695,7.310713 88.9200859,7.9137343 88.6577148,8.4511719 C88.3953437,8.9886095 88.0271834,9.4022609 87.5532227,9.6921387 C87.079262,9.9820164 86.5376007,10.1269531 85.9282227,10.1269531 C85.0437781,10.1269531 84.3201526,9.8381377 83.7573242,9.260498 C83.1944959,8.6828584 82.8792321,7.9327846 82.8115234,7.0102539 L81.1674805,7.0102539 L81.1674805,10 L79.9931641,10 L79.9931641,3.13183594 L81.1674805,3.13183594 L81.1674805,6.0454102 Z M83.9731445,6.6420898 C83.9731445,7.4038124 84.1498192,8.0152972 84.5031738,8.4765625 C84.8565285,8.9378278 85.33154,9.168457 85.9282227,9.168457 C86.5249053,9.168457 86.997801,8.9335961 87.3469238,8.4638672 C87.6960467,7.9941383 87.8706055,7.3403362 87.8706055,6.5024414 C87.8706055,5.75341422 87.6928729,5.14404532 87.3374023,4.67431641 C86.9819318,4.2045875 86.5079782,3.96972656 85.9155273,3.96972656 C85.33154,3.96972656 84.8618182,4.20035577 84.5063477,4.66162109 C84.1508771,5.12288642 83.9731445,5.78303607 83.9731445,6.6420898 Z M95.678223,10 L94.497559,10 L94.497559,7.5117188 C93.98128,7.6471361 93.452314,7.7148438 92.910645,7.7148438 C92.051591,7.7148438 91.396731,7.4947939 90.946045,7.0546875 C90.495359,6.6145811 90.265788,5.98828531 90.257324,5.17578125 L90.257324,3.12548828 L91.431641,3.12548828 L91.431641,5.21386719 C91.4528,6.2379608 91.945796,6.75 92.910645,6.75 C93.452314,6.75 93.98128,6.6822923 94.497559,6.546875 L94.497559,3.13183594 L95.678223,3.13183594 L95.678223,10 Z" id="path-4"></path>
                    </g>
                    <g id="path-4-link" fill="#3C3C3C">
                        <path d="M6.5063477,10 L5.3320312,10 L5.3320312,4.10302734 L2.1708984,4.10302734 L2.1708984,10 L0.9902344,10 L0.9902344,3.13183594 L6.5063477,3.13183594 L6.5063477,10 Z M9.6674805,10 L8.4931641,10 L8.4931641,3.13183594 L9.6674805,3.13183594 L9.6674805,10 Z M8.3979492,1.31005859 C8.3979492,1.11962795 8.4561355,0.95882227 8.5725098,0.82763672 C8.688884,0.69645117 8.861327,0.63085938 9.0898438,0.63085938 C9.3183605,0.63085938 9.4918614,0.69645117 9.6103516,0.82763672 C9.7288417,0.95882227 9.7880859,1.11962795 9.7880859,1.31005859 C9.7880859,1.50048923 9.7288417,1.65917905 9.6103516,1.78613281 C9.4918614,1.91308657 9.3183605,1.9765625 9.0898438,1.9765625 C8.861327,1.9765625 8.688884,1.91308657 8.5725098,1.78613281 C8.4561355,1.65917905 8.3979492,1.50048923 8.3979492,1.31005859 Z M11.4892578,9.0415039 L11.8955078,8.5400391 C12.3525413,7.9475882 12.6127927,7.0589252 12.6762695,5.87402344 L12.7841797,3.13183594 L17.2084961,3.13183594 L17.2084961,9.0415039 L18.0908203,9.0415039 L18.0908203,12.0185547 L16.9165039,12.0185547 L16.9165039,10 L12.1240234,10 L12.1240234,12.0185547 L10.949707,12.0185547 L10.9560547,9.0415039 L11.4892578,9.0415039 Z M12.8793945,9.0415039 L16.0341797,9.0415039 L16.0341797,4.21728516 L13.9204102,4.21728516 L13.8505859,5.85498047 C13.7786455,7.2218493 13.4549182,8.2840131 12.8793945,9.0415039 Z M25.0224609,3.13183594 L25.0224609,10 L23.8417969,10 L23.8417969,4.10302734 L21.5058594,4.10302734 L21.3662109,6.6738281 C21.2900387,7.8544981 21.0922054,8.6987279 20.7727051,9.206543 C20.4532048,9.714358 19.9464553,9.978841 19.2524414,10 L18.7827148,10 L18.7827148,8.965332 L19.1191406,8.9399414 C19.5000019,8.8976235 19.7729484,8.6775736 19.9379883,8.2797852 C20.1030282,7.8819967 20.2088214,7.1456759 20.2553711,6.0708008 L20.3823242,3.13183594 L25.0224609,3.13183594 Z M26.5966797,6.5024414 C26.5966797,5.82958648 26.7289212,5.2244493 26.9934082,4.68701172 C27.2578952,4.14957414 27.6260556,3.73486474 28.0979004,3.44287109 C28.5697452,3.15087745 29.1082327,3.00488281 29.7133789,3.00488281 C30.6486049,3.00488281 31.4050264,3.32861004 31.982666,3.97607422 C32.5603056,4.62353839 32.8491211,5.48469515 32.8491211,6.5595703 L32.8491211,6.6420898 C32.8491211,7.310713 32.7211113,7.9105605 32.4650879,8.4416504 C32.2090645,8.9727403 31.84302,9.3863917 31.3669434,9.6826172 C30.8908668,9.9788426 30.3439158,10.1269531 29.7260742,10.1269531 C28.79508,10.1269531 28.0407744,9.8032259 27.4631348,9.1557617 C26.8854952,8.5082975 26.5966797,7.6513725 26.5966797,6.5849609 L26.5966797,6.5024414 Z M27.7773438,6.6420898 C27.7773438,7.4038124 27.9540184,8.0152972 28.307373,8.4765625 C28.6607277,8.9378278 29.1336233,9.168457 29.7260742,9.168457 C30.3227569,9.168457 30.7967105,8.934654 31.1479492,8.467041 C31.499188,7.999428 31.6748047,7.344568 31.6748047,6.5024414 C31.6748047,5.74918243 31.4960142,5.13875559 31.1384277,4.67114258 C30.7808413,4.20352956 30.3058298,3.96972656 29.7133789,3.96972656 C29.1336234,3.96972656 28.6660174,4.20035577 28.3105469,4.66162109 C27.9550763,5.12288642 27.7773438,5.78303607 27.7773438,6.6420898 Z M38.7587891,4.10302734 L35.5913086,4.10302734 L35.5913086,10 L34.4106445,10 L34.4106445,3.13183594 L38.7587891,3.13183594 L38.7587891,4.10302734 Z M44.0146484,10 C43.9469398,9.8645827 43.8919273,9.6233741 43.8496094,9.2763672 C43.3037082,9.8434273 42.652022,10.1269531 41.8945312,10.1269531 C41.2174445,10.1269531 40.6620302,9.9354674 40.2282715,9.5524902 C39.7945128,9.1695131 39.5776367,8.6839222 39.5776367,8.0957031 C39.5776367,7.3805303 39.8495253,6.8251159 40.3933105,6.4294434 C40.9370958,6.0337708 41.7019807,5.8359375 42.6879883,5.8359375 L43.8305664,5.8359375 L43.8305664,5.29638672 C43.8305664,4.8859029 43.7078463,4.55900187 43.4624023,4.31567383 C43.2169584,4.07234579 42.8551456,3.95068359 42.3769531,3.95068359 C41.9580057,3.95068359 41.6067723,4.05647681 41.3232422,4.26806641 C41.0397121,4.47965601 40.8979492,4.73567558 40.8979492,5.03613281 L39.7172852,5.03613281 C39.7172852,4.69335766 39.8389474,4.3622249 40.0822754,4.04272461 C40.3256034,3.72322431 40.6556783,3.47037854 41.0725098,3.28417969 C41.4893413,3.09798084 41.9474259,3.00488281 42.4467773,3.00488281 C43.2381224,3.00488281 43.8580707,3.20271612 44.3066406,3.59838867 C44.7552106,3.99406122 44.9879556,4.53889627 45.0048828,5.23291016 L45.0048828,8.394043 C45.0048828,9.02458 45.0852857,9.5260398 45.2460938,9.8984375 L45.2460938,10 L44.0146484,10 Z M42.065918,9.1049805 C42.4340839,9.1049805 42.7832015,9.0097666 43.1132812,8.8193359 C43.443361,8.6289053 43.6824537,8.3813492 43.8305664,8.0766602 L43.8305664,6.6674805 L42.9101562,6.6674805 C41.471347,6.6674805 40.7519531,7.0885375 40.7519531,7.9306641 C40.7519531,8.29883 40.8746733,8.5865875 41.1201172,8.7939453 C41.3655611,9.0013031 41.6808249,9.1049805 42.065918,9.1049805 Z M52.4633789,10 L51.2890625,10 L51.2890625,4.10302734 L48.1279297,4.10302734 L48.1279297,10 L46.9472656,10 L46.9472656,3.13183594 L52.4633789,3.13183594 L52.4633789,10 Z M55.6245117,10 L54.4501953,10 L54.4501953,3.13183594 L55.6245117,3.13183594 L55.6245117,10 Z M54.3549805,1.31005859 C54.3549805,1.11962795 54.4131667,0.95882227 54.529541,0.82763672 C54.6459153,0.69645117 54.8183582,0.63085938 55.046875,0.63085938 C55.2753918,0.63085938 55.4488926,0.69645117 55.5673828,0.82763672 C55.685873,0.95882227 55.7451172,1.11962795 55.7451172,1.31005859 C55.7451172,1.50048923 55.685873,1.65917905 55.5673828,1.78613281 C55.4488926,1.91308657 55.2753918,1.9765625 55.046875,1.9765625 C54.8183582,1.9765625 54.6459153,1.91308657 54.529541,1.78613281 C54.4131667,1.65917905 54.3549805,1.50048923 54.3549805,1.31005859 Z M57.4462891,9.0415039 L57.8525391,8.5400391 C58.3095726,7.9475882 58.5698239,7.0589252 58.6333008,5.87402344 L58.7412109,3.13183594 L63.1655273,3.13183594 L63.1655273,9.0415039 L64.0478516,9.0415039 L64.0478516,12.0185547 L62.8735352,12.0185547 L62.8735352,10 L58.0810547,10 L58.0810547,12.0185547 L56.9067383,12.0185547 L56.9130859,9.0415039 L57.4462891,9.0415039 Z M58.8364258,9.0415039 L61.9912109,9.0415039 L61.9912109,4.21728516 L59.8774414,4.21728516 L59.8076172,5.85498047 C59.7356767,7.2218493 59.4119495,8.2840131 58.8364258,9.0415039 Z M67.4882812,7.0737305 L66.6313477,7.0737305 L66.6313477,10 L65.4506836,10 L65.4506836,3.13183594 L66.6313477,3.13183594 L66.6313477,6.0390625 L67.3994141,6.0390625 L69.7099609,3.13183594 L71.1318359,3.13183594 L68.4150391,6.4326172 L71.3603516,10 L69.8686523,10 L67.4882812,7.0737305 Z M78,3.13183594 L78,10 L76.8193359,10 L76.8193359,4.10302734 L74.4833984,4.10302734 L74.34375,6.6738281 C74.2675777,7.8544981 74.0697444,8.6987279 73.7502441,9.206543 C73.4307438,9.714358 72.9239944,9.978841 72.2299805,10 L71.7602539,10 L71.7602539,8.965332 L72.0966797,8.9399414 C72.477541,8.8976235 72.7504875,8.6775736 72.9155273,8.2797852 C73.0805672,7.8819967 73.1863604,7.1456759 73.2329102,6.0708008 L73.3598633,3.13183594 L78,3.13183594 Z M81.1674805,6.0454102 L82.8178711,6.0454102 C82.9067387,5.13134309 83.2315239,4.39608026 83.7922363,3.83959961 C84.3529488,3.28311896 85.0607054,3.00488281 85.9155273,3.00488281 C86.8126672,3.00488281 87.5468721,3.3074514 88.1181641,3.91259766 C88.689456,4.51774391 88.9983722,5.30484542 89.0449219,6.2739258 L89.0512695,6.6420898 C89.0512695,7.310713 88.9200859,7.9137343 88.6577148,8.4511719 C88.3953437,8.9886095 88.0271834,9.4022609 87.5532227,9.6921387 C87.079262,9.9820164 86.5376007,10.1269531 85.9282227,10.1269531 C85.0437781,10.1269531 84.3201526,9.8381377 83.7573242,9.260498 C83.1944959,8.6828584 82.8792321,7.9327846 82.8115234,7.0102539 L81.1674805,7.0102539 L81.1674805,10 L79.9931641,10 L79.9931641,3.13183594 L81.1674805,3.13183594 L81.1674805,6.0454102 Z M83.9731445,6.6420898 C83.9731445,7.4038124 84.1498192,8.0152972 84.5031738,8.4765625 C84.8565285,8.9378278 85.33154,9.168457 85.9282227,9.168457 C86.5249053,9.168457 86.997801,8.9335961 87.3469238,8.4638672 C87.6960467,7.9941383 87.8706055,7.3403362 87.8706055,6.5024414 C87.8706055,5.75341422 87.6928729,5.14404532 87.3374023,4.67431641 C86.9819318,4.2045875 86.5079782,3.96972656 85.9155273,3.96972656 C85.33154,3.96972656 84.8618182,4.20035577 84.5063477,4.66162109 C84.1508771,5.12288642 83.9731445,5.78303607 83.9731445,6.6420898 Z M95.678223,10 L94.497559,10 L94.497559,7.5117188 C93.98128,7.6471361 93.452314,7.7148438 92.910645,7.7148438 C92.051591,7.7148438 91.396731,7.4947939 90.946045,7.0546875 C90.495359,6.6145811 90.265788,5.98828531 90.257324,5.17578125 L90.257324,3.12548828 L91.431641,3.12548828 L91.431641,5.21386719 C91.4528,6.2379608 91.945796,6.75 92.910645,6.75 C93.452314,6.75 93.98128,6.6822923 94.497559,6.546875 L94.497559,3.13183594 L95.678223,3.13183594 L95.678223,10 Z" id="path-4"></path>
                    </g>
                </g>
            </g>
        </g>
    </g>
</svg>