<svg xmlns="http://www.w3.org/2000/svg" width="210" height="80" viewBox="0 0 210 80"><g><g><g><g><path fill="#46bece" d="M38.579.442c21.327 0 38.616 17.29 38.616 38.617.034.083.598-.162-38.616 0-39.214.161-38.634.013-38.617 0C-.038 17.73 17.252.442 38.579.442z"/></g><g><path fill="#ffc400" d="M38.579 80.09c21.327 0 38.616-17.289 38.616-38.616.034-.084.598.161-38.616 0-39.214-.162-38.634-.014-38.617 0 0 21.327 17.29 38.617 38.617 38.617z"/></g><g><path fill="#fff" d="M22.37 41.399h4.792L9.107 67.331l-2.585-4.157z"/></g><g><path fill="#fff" d="M36.867 41.399h4.516v38.692h-4.516z"/></g><g><path fill="#fff" d="M57.164 41.399H52.37l18.055 25.932 2.586-4.157z"/></g></g><g><g><text fill="#1f1f1f" style="line-height:28px;font-kerning:normal" dominant-baseline="text-before-edge" font-family="'Futura','Futura-Bold'" font-size="32" font-style="none" font-weight="700" transform="translate(93 -2)"><tspan fill="#46bece" font-family="FuturaBT-Book" letter-spacing="4.8">FIRST</tspan><tspan> </tspan><tspan>FLOОR</tspan></text></g></g><g><g><text fill="#3c3c3c" style="line-height:22px;font-kerning:normal" dominant-baseline="text-before-edge" font-family="'Futura','FuturaBT-Book'" font-size="13" transform="translate(95 62)"><tspan>#</tspan><tspan font-family="'Lucida Grande','LucidaGrande'" font-style="none" font-weight="400">підлогапідкл</tspan><tspan font-family="'Lucida Grande','LucidaGrande'" font-style="none" font-weight="400">юч</tspan></text></g></g></g></g></svg>