<svg xmlns="http://www.w3.org/2000/svg" width="65" height="40.863" viewBox="0 0 65 40.863"><defs><style>.a{fill:#46bece;}</style></defs><g transform="translate(0 -26.787)"><path class="a" d="M288.139,211H271v15.234h23.588L289.944,212.3A1.9,1.9,0,0,0,288.139,211Zm0,0" transform="translate(-236.596 -184.213)"/><path class="a" d="M59.84,212.3,55.2,226.234H78.784V211H61.645A1.9,1.9,0,0,0,59.84,212.3Zm0,0" transform="translate(-48.188 -184.213)"/><path class="a" d="M295.858,361H271v19.17h28.691a1.9,1.9,0,0,0,1.806-2.507Zm0,0" transform="translate(-236.596 -312.52)"/><path class="a" d="M.1,377.663A1.9,1.9,0,0,0,1.9,380.17H30.6V361H5.737Zm0,0" transform="translate(0 -312.52)"/></g></svg>