<svg xmlns="http://www.w3.org/2000/svg" width="53.148" height="44.434" viewBox="0 0 53.148 44.434"><defs><style>.a{fill:#46bece;}</style></defs><g transform="translate(0 -1.616)"><g transform="translate(0 1.616)"><path class="a" d="M13.587,40.72h9.644C18.2,27.8,31.2,4.758,31.2,4.758,7.736,19.935,13.587,40.72,13.587,40.72Z" transform="translate(21.947 3.714)"/><path class="a" d="M34.632,2.662C15.322,9.618,10.916,19.473,10.916,19.473s4.465,9.294,3.225,13.236C19.285,11.91,34.632,2.662,34.632,2.662Z" transform="translate(18.516 0.158)"/><path class="a" d="M0,4.288S13.007,27.33,7.97,40.25h9.647S23.468,19.468,0,4.288Z" transform="translate(0 2.916)"/><path class="a" d="M3.387,1.616s15.873,28.127,9.728,43.9H24.89S32.029,20.139,3.387,1.616Z" transform="translate(5.745 -1.616)"/></g></g></svg>