<svg xmlns="http://www.w3.org/2000/svg" width="35" height="35" viewBox="0 0 35 35"><g><g><g><path fill="#aac0c3" d="M20.491 17.2a3.292 3.292 0 1 1-6.584 0 3.292 3.292 0 0 1 6.584 0z"/></g><g><path fill="#aac0c3" d="M22.471 13.113a1.185 1.185 0 1 1 0-2.37 1.185 1.185 0 0 1 0 2.37zM17.2 22.27a5.071 5.071 0 1 1 0-10.143 5.071 5.071 0 0 1 0 10.143zm7.7-10.896a3.06 3.06 0 0 0-.74-1.136 3.058 3.058 0 0 0-1.135-.739c-.348-.135-.871-.296-1.834-.34-1.041-.047-1.354-.057-3.99-.057-2.638 0-2.95.01-3.992.057-.963.044-1.486.205-1.833.34-.43.159-.818.411-1.136.74-.328.318-.58.706-.739 1.135-.135.348-.296.87-.34 1.834-.047 1.04-.058 1.353-.058 3.99 0 2.637.01 2.95.058 3.991.044.963.205 1.486.34 1.834.159.43.41.817.739 1.136.318.328.706.58 1.135.738.348.136.871.297 1.834.34 1.042.048 1.354.058 3.991.058s2.95-.01 3.99-.057c.964-.044 1.487-.205 1.835-.34a3.27 3.27 0 0 0 1.874-1.875c.135-.348.296-.87.34-1.834.048-1.041.058-1.354.058-3.99 0-2.638-.01-2.95-.058-3.991-.044-.963-.204-1.486-.34-1.834z"/></g><g><path fill="#aac0c3" d="M27.016 21.271c-.048 1.051-.215 1.77-.46 2.397a5.05 5.05 0 0 1-2.888 2.889c-.628.244-1.346.41-2.397.459-1.053.048-1.39.06-4.072.06-2.682 0-3.018-.012-4.072-.06-1.05-.048-1.769-.215-2.397-.46a4.838 4.838 0 0 1-1.75-1.139 4.84 4.84 0 0 1-1.138-1.749c-.244-.628-.411-1.346-.46-2.397-.048-1.053-.059-1.39-.059-4.072 0-2.682.011-3.018.06-4.072.047-1.05.214-1.769.458-2.397a4.838 4.838 0 0 1 1.14-1.75 4.838 4.838 0 0 1 1.75-1.138c.627-.244 1.345-.411 2.396-.46 1.054-.047 1.39-.059 4.072-.059 2.682 0 3.019.012 4.072.06 1.051.048 1.769.215 2.397.458a4.841 4.841 0 0 1 1.75 1.14 4.84 4.84 0 0 1 1.139 1.75c.244.627.411 1.345.459 2.396.048 1.054.06 1.39.06 4.072 0 2.682-.012 3.019-.06 4.072zM17.199 0C7.702 0 0 7.702 0 17.2c0 9.497 7.702 17.198 17.2 17.198 9.497 0 17.198-7.701 17.198-17.199C34.398 7.702 26.697 0 17.2 0z"/></g></g></g></svg>