<svg xmlns="http://www.w3.org/2000/svg" width="54.848" height="47.058" viewBox="0 0 54.848 47.058"><defs><style>.a{fill:#46bece;}</style></defs><g transform="translate(0 -3.895)"><path class="a" d="M54.5,39.614l-10.363-4.49L29.217,41.092a5.2,5.2,0,0,1-3.583,0L10.713,35.125.351,39.614c-.472.2-.467.524.01.716l26.2,10.48a2.68,2.68,0,0,0,1.729,0l26.2-10.48C54.964,40.139,54.969,39.817,54.5,39.614Z"/><path class="a" d="M54.5,27.512,44.133,23.021,29.217,28.987a5.165,5.165,0,0,1-3.585,0L10.714,23.021.351,27.512c-.472.2-.467.523.01.716l26.2,10.478a2.694,2.694,0,0,0,1.729,0l26.2-10.479C54.964,28.036,54.969,27.716,54.5,27.512Z"/><path class="a" d="M.361,16.125,14.023,21.59,26.56,26.6a2.68,2.68,0,0,0,1.729,0L40.83,21.589l13.658-5.463c.477-.191.48-.511.01-.716L28.277,4.048a2.46,2.46,0,0,0-1.708,0L.351,15.41C-.121,15.614-.116,15.935.361,16.125Z"/></g></svg>