<svg xmlns="http://www.w3.org/2000/svg" width="60.091" height="51.866" viewBox="0 0 60.091 51.866"><defs><style>.a,.b{fill:#46bece;}.b{stroke:#fff;stroke-width:2px;}.c{fill:#fff;}</style></defs><g transform="translate(2.091 -25.67)"><path class="a" d="M151.612,32.593a1.184,1.184,0,0,0-1.184-1.184V29.044a1.183,1.183,0,1,0,0-2.365H106.66v44.95h43.769a1.183,1.183,0,1,0,0-2.365V66.9a1.183,1.183,0,1,0,0-2.365V62.167a1.184,1.184,0,1,0,0-2.367V57.434a1.183,1.183,0,1,0,0-2.365V52.7a1.183,1.183,0,1,0,0-2.365V47.971a1.183,1.183,0,1,0,0-2.367V43.239a1.183,1.183,0,1,0,0-2.365V38.507a1.183,1.183,0,1,0,0-2.365V33.776A1.184,1.184,0,0,0,151.612,32.593Z" transform="translate(-94.612 -0.008)"/><path class="b" d="M123.425,179.526h43.093a1.182,1.182,0,0,0-1.184-1.182v-2.367a1.183,1.183,0,1,0,0-2.365v-2.365a1.183,1.183,0,1,0,0-2.367v-2.365a1.184,1.184,0,0,0,1.184-1.183H123.425Z" transform="translate(-109.518 -119.682)"/><path class="a" d="M21.823,28.147a24.486,24.486,0,0,0-8.8-1.469,24.492,24.492,0,0,0-8.8,1.469C1.5,29.234.007,30.812.007,32.592V71.628c0,1.781,1.494,3.358,4.207,4.445a24.493,24.493,0,0,0,8.8,1.469,24.485,24.485,0,0,0,8.8-1.469c2.714-1.087,4.207-2.663,4.207-4.445V32.592C26.03,30.812,24.536,29.234,21.823,28.147Z" transform="translate(0.213 -0.007)"/><ellipse class="b" cx="13.012" cy="5.914" rx="13.012" ry="5.914" transform="translate(0.219 26.67)"/><path class="c" d="M110.389,69.716a.966.966,0,0,1,0,1.816,3.357,3.357,0,0,1-3.084,0,.966.966,0,0,1,0-1.816A3.357,3.357,0,0,1,110.389,69.716Z" transform="translate(-95.82 -38.14)"/><path class="b" d="M13.869,202.617c-7.6,0-14.265-3.9-14.265-7.21V209.82c0,3.315,6.669,6.834,14.265,6.834s14.079-3.52,14.079-6.834V195.407C27.948,198.722,21.464,202.617,13.869,202.617Z" transform="translate(-0.695 -150.648)"/></g></svg>