<svg xmlns="http://www.w3.org/2000/svg" width="22.365" height="29.817" viewBox="0 0 22.365 29.817"><defs><style>.a{fill:#46bece;}</style></defs><g transform="translate(-63.974 0)"><g transform="translate(63.974 0)"><g transform="translate(0 0)"><path class="a" d="M86.269,28.766l-3.931-8.315a.736.736,0,0,0-.377-.362l-1.956-.871,3.388-5.679.023-.042A9.281,9.281,0,0,0,81.669,2.671,9.276,9.276,0,0,0,66.9,13.5q.011.021.023.042l3.388,5.679-1.967.875a.735.735,0,0,0-.366.358l-3.931,8.315a.736.736,0,0,0,.964.987l4.924-2.192,4.924,2.192a.736.736,0,0,0,.6,0L80.38,27.56,85.3,29.753a.736.736,0,0,0,.964-.987ZM68.2,12.806a7.717,7.717,0,0,1-.843-3.579,7.843,7.843,0,0,1,7.693-7.755,7.807,7.807,0,0,1,7.072,11.334L75.789,23.414a.736.736,0,0,1-1.264,0ZM80.68,26.083a.736.736,0,0,0-.6,0l-4.924,2.192-4.924-2.192a.736.736,0,0,0-.6,0L66.223,27.6l2.966-6.275,1.879-.836,2.194,3.677a2.207,2.207,0,0,0,3.791,0l2.194-3.677,1.879.836L84.091,27.6Z" transform="translate(-63.974 0)"/></g></g><g transform="translate(71.799 5.917)"><g transform="translate(0)"><path class="a" d="M201.7,101.607a3.358,3.358,0,1,0,3.358,3.358A3.362,3.362,0,0,0,201.7,101.607Zm0,5.244a1.886,1.886,0,1,1,1.886-1.886A1.888,1.888,0,0,1,201.7,106.851Z" transform="translate(-198.345 -101.607)"/></g></g></g></svg>