<svg xmlns="http://www.w3.org/2000/svg" width="70.395" height="50.909" viewBox="0 0 70.395 50.909"><defs><style>.a{fill:#46bece;}.b{fill:#fff;}</style></defs><path class="a" d="M150.122,166.984l5.964-1.6a.142.142,0,0,0,.1-.137V148.382a2.694,2.694,0,0,0-2.694-2.694h-51.33a2.694,2.694,0,0,0-2.694,2.694v25.489a2.694,2.694,0,0,0,2.694,2.694H153.5a2.694,2.694,0,0,0,2.694-2.694v-3.9a.142.142,0,0,0-.085-.13l-6-2.588A.142.142,0,0,1,150.122,166.984Zm0,0" transform="translate(-85.796 -125.657)"/><path class="b" d="M140.654,160.076a5.26,5.26,0,0,0,5.26-5.26v-9.129H102.167a2.694,2.694,0,0,0-2.694,2.694v11.694Zm0,0" transform="translate(-86.796 -126.657)"/><path class="a" d="M54.024,0H2.694A2.694,2.694,0,0,0,0,2.694v25.49a2.694,2.694,0,0,0,2.694,2.694h51.33a2.694,2.694,0,0,0,2.694-2.694V2.694A2.694,2.694,0,0,0,54.024,0Zm0,0" transform="translate(0)"/><path class="b" d="M56.718,99.339v-3.12a42.7,42.7,0,0,1-4.243,4.4,28.289,28.289,0,0,1-15.792,6.607c-4.386.412-8.671-.118-13.818-.854l-.377-.054a66.963,66.963,0,0,0-13.89-1A29.769,29.769,0,0,0,0,107.5v2.242a28.676,28.676,0,0,1,8.736-2.373,65.309,65.309,0,0,1,13.461.986l.376.054c4.155.595,9.325,1.335,14.3.866a30.367,30.367,0,0,0,16.95-7.1C54.6,101.509,55.705,100.421,56.718,99.339Zm0,0" transform="translate(0 -82.99)"/><path class="b" d="M0,3.392c4.2.475,8.327,2.664,12.328,4.786C13.8,8.96,15.2,9.7,16.6,10.361a26.012,26.012,0,0,0,8.891,2.474q.536.046,1.053.045a8.465,8.465,0,0,0,5.64-1.869,4.987,4.987,0,0,0,1.708-3.645A10.4,10.4,0,0,0,32.622,2.34,18.332,18.332,0,0,0,31.212,0h-2.6c1.713,2.023,3.342,4.976,3.226,7.262a2.958,2.958,0,0,1-1,2.2,7.119,7.119,0,0,1-5.162,1.322A23.95,23.95,0,0,1,17.48,8.495c-1.36-.64-2.733-1.368-4.186-2.139C9.189,4.178,4.952,1.932.454,1.368.427,1.356.4,1.345.371,1.335A2.679,2.679,0,0,0,0,2.694Zm0,0" transform="translate(0)"/><path class="b" d="M40.7,5.25c.839,3.7-.071,7.389-2.319,9.4a9.885,9.885,0,0,1-5.627,2.194,32.146,32.146,0,0,1-6.228-.237l-.351-.036c-7.213-.737-14.956-1.269-22.706-.173-1.109.156-2.541.439-3.467.632V19.14c1.189-.253,2.71-.55,3.755-.7,7.532-1.064,15.125-.541,22.209.182l.349.036a33.685,33.685,0,0,0,6.634.24,11.733,11.733,0,0,0,6.808-2.712,9.986,9.986,0,0,0,2.995-5.306,13.874,13.874,0,0,0-.041-6.089A28.713,28.713,0,0,0,40.9,0H38.62A30.859,30.859,0,0,1,40.7,5.25Zm0,0" transform="translate(0)"/><g transform="translate(13.676 25.402)"><path class="b" d="M99.473,266.234h13.4a1.031,1.031,0,0,0,0-2.062h-13.4Zm0,0" transform="translate(-99.473 -253.253)"/><path class="b" d="M476.469,184.754h-4.633a1.031,1.031,0,1,0,0,2.062h4.633Zm0,0" transform="translate(-419.75 -184.754)"/><path class="b" d="M318.906,295.044a.142.142,0,0,1,.019-.267l3.45-.926H296.215a1.031,1.031,0,1,0,0,2.062h24.708Zm0,0" transform="translate(-268.275 -278.852)"/></g></svg>