<svg xmlns="http://www.w3.org/2000/svg" width="80.09" height="52.482" viewBox="0 0 80.09 52.482"><defs><style>.a{fill:#46bece;}</style></defs><g transform="translate(-0.001 -0.457)"><path class="a" d="M18.839,46.931l5.869-5.855L46.461,19.309h.013a.2.2,0,0,1,.056-.055A11.046,11.046,0,1,0,30.5,4.062a.235.235,0,0,1-.056.069h-.013L9.075,25.469,3.219,31.311l.013.014A11.035,11.035,0,1,0,18.839,46.931Zm-13.328-7.8A5.523,5.523,0,1,1,7.13,43.035,5.524,5.524,0,0,1,5.512,39.128Zm0,0" transform="translate(0 0)"/><path class="a" d="M58.407,232.742a2.762,2.762,0,1,1-2.762-2.762A2.762,2.762,0,0,1,58.407,232.742Zm0,0" transform="translate(-44.609 -193.614)"/><path class="a" d="M138.209,106.391H110.822a13.533,13.533,0,0,1-1.616,2.762,13.745,13.745,0,0,1-1.1,1.271c-.028.028-.042.056-.069.083s-.069.083-.111.124L80.189,138.363a2.314,2.314,0,0,1-.207.18,13.191,13.191,0,0,1-1.174.994,13.667,13.667,0,0,1-8.273,2.762h34.527a1.381,1.381,0,0,0,0-2.762H102.88l2.762-2.762h4.944a1.381,1.381,0,1,0,0-2.762H108.4l2.762-2.762h4.944a1.381,1.381,0,0,0,0-2.762h-2.182l2.762-2.762h4.944a1.381,1.381,0,1,0,0-2.762h-2.182l2.762-2.762h4.945a1.381,1.381,0,1,0,0-2.762h-2.182l2.762-2.762h4.944a1.381,1.381,0,0,0,0-2.762H130.5l2.762-2.762h4.945a1.381,1.381,0,0,0,0-2.762Zm0,0" transform="translate(-59.499 -89.36)"/></g></svg>