<svg version="1.1" xmlns="http://www.w3.org/2000/svg" xmlns:xlink="http://www.w3.org/1999/xlink">
<defs>
<symbol id="icon-balance" viewBox="0 0 34 32">
<title>balance</title>
<path d="M33.73 16.279l-0.028 0.014-4.848-12.063h2.212c0.397 0 0.718-0.321 0.718-0.718s-0.322-0.718-0.718-0.718h-13.511v-2.070c0-0.397-0.322-0.718-0.718-0.718s-0.718 0.322-0.718 0.718v2.070h-13.512c-0.397 0-0.718 0.321-0.718 0.718s0.322 0.718 0.718 0.718h2.306l-4.854 12.049c-0.035 0.079-0.056 0.17-0.058 0.266v0.001c0 3.298 2.673 5.971 5.971 5.971s5.971-2.673 5.971-5.971v0c-0.002-0.097-0.023-0.188-0.060-0.27l0.002 0.005-4.847-12.064h9.078v22.204c-3.426 0.258-6.102 2.342-6.102 4.862 0 0.397 0.322 0.718 0.718 0.718v0h12.204c0.397 0 0.718-0.322 0.718-0.718v0c0-2.52-2.678-4.604-6.102-4.862v-22.204h9.17l-4.82 12.063c-0.034 0.078-0.055 0.169-0.058 0.265l-0 0.001c0 3.298 2.673 5.971 5.971 5.971s5.971-2.673 5.971-5.971v0c-0.002-0.096-0.022-0.187-0.057-0.271l0.002 0.005zM5.968 21.092c-2.248-0.003-4.113-1.64-4.47-3.787l-0.004-0.026h8.919c-0.36 2.164-2.209 3.796-4.443 3.814h-0.002zM10.154 15.843h-8.358l4.186-10.421zM22.090 30.564h-10.521c0.532-1.544 2.724-2.736 5.256-2.736s4.733 1.192 5.265 2.736zM27.785 5.428l4.171 10.415h-8.358zM27.785 21.091v0.008c-2.238-0.018-4.089-1.653-4.442-3.794l-0.004-0.026h8.913c-0.361 2.171-2.222 3.807-4.467 3.814h-0.001z"></path>
</symbol>
<symbol id="icon-search" viewBox="0 0 32 32">
<title>search</title>
<path d="M31.716 30.368l-7.777-7.777c2.080-2.384 3.349-5.523 3.349-8.958 0-7.542-6.114-13.656-13.656-13.656s-13.656 6.114-13.656 13.656c0 7.542 6.114 13.656 13.656 13.656 3.435 0 6.574-1.269 8.974-3.363l-0.016 0.014 7.777 7.777c0.172 0.173 0.41 0.282 0.674 0.284h0c0.001 0 0.002 0 0.003 0 0.263 0 0.501-0.109 0.671-0.284l0-0c0.171-0.173 0.277-0.411 0.277-0.674s-0.106-0.501-0.277-0.674l0 0zM1.909 13.644c0.004-6.475 5.253-11.722 11.729-11.722 6.477 0 11.729 5.251 11.729 11.729s-5.251 11.728-11.729 11.728v0c-6.477-0.008-11.725-5.258-11.729-11.735v-0z"></path>
</symbol>
<symbol id="icon-cart_ico" viewBox="0 0 37 32">
<title>cart_ico</title>
<path d="M19.854 26.977c-0.231-0.624-0.821-1.060-1.514-1.060-0.889 0-1.61 0.721-1.61 1.61s0.721 1.61 1.61 1.61c0.198 0 0.388-0.036 0.563-0.101l-0.011 0.004c0.622-0.234 1.057-0.824 1.057-1.515 0-0.196-0.035-0.384-0.099-0.559l0.004 0.011zM18.526 28.032c-0.056 0.021-0.12 0.034-0.188 0.034-0.296 0-0.537-0.24-0.537-0.537s0.24-0.537 0.537-0.537c0.23 0 0.427 0.145 0.503 0.348l0.001 0.004c0.021 0.055 0.034 0.119 0.034 0.186 0 0.229-0.144 0.425-0.347 0.5l-0.004 0.001z"></path>
<path d="M36.599 22.029l-0.738-2.017c-0.050-0.134-0.147-0.24-0.271-0.299l-0.003-0.001-0.024-0.011-0.023-0.009h-0.005c-0.053-0.019-0.114-0.031-0.178-0.031s-0.125 0.011-0.182 0.032l0.004-0.001-1.755 0.638-5.2-14.287c-0.077-0.208-0.274-0.353-0.505-0.353-0.297 0-0.537 0.24-0.537 0.537 0 0.066 0.012 0.129 0.034 0.187l-0.001-0.004 1.286 3.53-11.098 4.035-2.809-7.731 3.698-1.346 0.795 2.185c0.077 0.208 0.274 0.353 0.504 0.353h0c0.001 0 0.001 0 0.002 0 0.065 0 0.128-0.012 0.185-0.034l-0.004 0.001 2.689-0.979c0.207-0.077 0.353-0.273 0.353-0.503 0-0.027-0.002-0.054-0.006-0.081l0 0.003c0-0.014 0-0.028-0.008-0.042v-0.012c-0.005-0.021-0.011-0.039-0.017-0.055l0.001 0.004-0.795-2.185 3.697-1.346 0.795 2.184c0.078 0.207 0.274 0.352 0.504 0.353h0c0 0 0 0 0.001 0 0.066 0 0.128-0.012 0.186-0.034l-0.004 0.001c0.206-0.079 0.349-0.274 0.349-0.504 0-0.066-0.012-0.129-0.034-0.188l0.001 0.004-0.979-2.689c-0.068-0.181-0.226-0.314-0.419-0.345l-0.003-0c-0.025-0.004-0.054-0.007-0.084-0.007-0.065 0-0.128 0.012-0.186 0.033l0.004-0.001-12.099 4.404c-0.206 0.078-0.349 0.273-0.349 0.502 0 0.067 0.012 0.13 0.034 0.189l-0.001-0.004 6.239 17.144c-0.361-0.114-0.776-0.184-1.207-0.193l-0.005-0-7.752-21.291c-0.387-1.039-1.37-1.765-2.523-1.765-0.329 0-0.643 0.059-0.934 0.167l0.019-0.006-6.97 2.524-0.014 0.007-0.031 0.021-0.015 0.010-0.026 0.022-0.014 0.012-0.023 0.024-0.013 0.013-0.021 0.025-0.008 0.015-0.017 0.026-0.014 0.018-0.015 0.027-0.010 0.019c0 0.008-0.007 0.018-0.012 0.027l-0.008 0.020c0 0.008-0.005 0.018-0.008 0.027s0 0.015-0.006 0.022 0 0.018-0.005 0.027 0 0.016 0 0.023 0 0.019 0 0.027 0 0.016 0 0.024 0 0.019 0 0.028 0 0.016 0 0.024 0 0.019 0 0.028 0 0.016 0 0.024 0 0.019 0.005 0.028 0 0.016 0 0.024 0.005 0.019 0.008 0.028 0 0.016 0.007 0.023v0l0.738 2.017c0.005 0.015 0.013 0.028 0.020 0.043s0.009 0.023 0.016 0.034 0.019 0.028 0.028 0.042 0.012 0.019 0.018 0.026c0.012 0.015 0.025 0.028 0.038 0.041l0 0 0.018 0.019c0.014 0.012 0.029 0.025 0.045 0.036l0.002 0.001 0.017 0.014c0.015 0.010 0.033 0.021 0.051 0.030l0.003 0.001 0.016 0.010c0.015 0.008 0.035 0.015 0.054 0.022l0.004 0.001 0.017 0.006c0.017 0.005 0.038 0.010 0.059 0.014l0.003 0h0.017c0.024 0.004 0.053 0.006 0.081 0.006h0.109l0.028-0.006 0.031-0.010h0.015l6.377-2.314 7.567 20.79c-0.939 0.824-1.529 2.026-1.529 3.367 0 2.469 2.001 4.47 4.47 4.47 2.438 0 4.421-1.952 4.469-4.379l0-0.005 13.616-4.975 0.033-0.027v-0.005l0.032-0.032 0.005-0.007c0.010-0.011 0.018-0.022 0.026-0.034v0c0.010-0.013 0.018-0.025 0.025-0.039v-0.007c0.007-0.013 0.014-0.025 0.020-0.038l0.006-0.016c0-0.011 0.010-0.021 0.013-0.032s0-0.015 0.007-0.023 0.005-0.018 0.008-0.026 0.005-0.026 0.008-0.040v-0.011c0.007-0.033 0.011-0.071 0.011-0.109 0-0.058-0.009-0.113-0.026-0.165l0.001 0.004zM20.979 3.918l0.612 1.681-1.681 0.612-0.612-1.681zM24.159 12.657l0.612 1.681-1.681 0.612-0.612-1.681zM17.773 14.977l3.697-1.342 0.795 2.185c0.077 0.206 0.273 0.35 0.502 0.35 0.067 0 0.131-0.012 0.19-0.035l-0.004 0.001 2.689-0.979c0.206-0.078 0.349-0.273 0.349-0.502 0-0.067-0.012-0.13-0.034-0.189l0.001 0.004-0.795-2.184 3.698-1.346 3.553 9.76-10.706 3.888c-0.2-0.229-0.418-0.432-0.655-0.613l-0.011-0.008zM8.661 2.499c0-0.008-0.007-0.017-0.011-0.025l-0.011-0.025-0.012-0.021-0.015-0.026-0.012-0.017-0.019-0.027-0.011-0.013-0.023-0.027-0.011-0.011-0.027-0.026-0.008-0.006-0.032-0.025-0.038-0.025c-0.070-0.041-0.153-0.067-0.241-0.072l-0.001-0h-0.135l-0.032 0.006-0.036 0.011h-0.016l-6.381 2.313-0.367-1.008 6.38-2.301c0.163-0.061 0.352-0.097 0.549-0.097 0.691 0 1.281 0.435 1.51 1.047l0.004 0.011 7.658 21.040c-0.382 0.090-0.719 0.216-1.032 0.38l0.024-0.012zM21.422 28.964c-0.555 1.169-1.725 1.963-3.081 1.963-1.878 0-3.4-1.522-3.4-3.4s1.522-3.4 3.4-3.4c1.461 0 2.707 0.921 3.188 2.215l0.008 0.023c0.131 0.346 0.207 0.745 0.207 1.163 0 0.521-0.118 1.015-0.329 1.456l0.009-0.020zM22.697 26.514c-0.049-0.207-0.101-0.38-0.163-0.547l0.010 0.031c-0.071-0.198-0.142-0.361-0.223-0.519l0.012 0.025 12.711-4.622 0.367 1.008z"></path>
</symbol>
<symbol id="icon-maps" viewBox="0 0 24 32">
<title>maps</title>
<path d="M23.927 30.872l-4.219-8.924c-0.084-0.175-0.226-0.311-0.399-0.387l-0.005-0.002-2.099-0.935 3.636-6.095 0.025-0.045c0.687-1.317 1.089-2.876 1.089-4.529 0-2.774-1.134-5.283-2.963-7.089l-0.001-0.001c-1.796-1.769-4.263-2.861-6.985-2.861-5.498 0-9.955 4.457-9.955 9.955 0 1.653 0.403 3.212 1.116 4.583l-0.026-0.055q0.012 0.023 0.025 0.045l3.636 6.095-2.111 0.939c-0.174 0.079-0.311 0.213-0.391 0.379l-0.002 0.005-4.219 8.924c-0.048 0.099-0.076 0.215-0.076 0.337 0 0.436 0.354 0.79 0.79 0.79 0.116 0 0.226-0.025 0.325-0.070l-0.005 0.002 5.285-2.352 5.285 2.352c0.095 0.043 0.205 0.069 0.322 0.069s0.227-0.025 0.327-0.071l-0.005 0.002 5.281-2.357 5.28 2.354c0.094 0.043 0.204 0.068 0.32 0.068 0.436 0 0.79-0.354 0.79-0.79 0-0.122-0.028-0.238-0.078-0.342l0.002 0.005zM4.535 13.744c-0.57-1.095-0.905-2.391-0.905-3.765 0-0.027 0-0.054 0-0.081l-0 0.004c0.052-4.552 3.71-8.233 8.248-8.323l0.008-0c0.034-0 0.075-0.001 0.115-0.001 4.627 0 8.379 3.751 8.379 8.379 0 1.381-0.334 2.684-0.926 3.833l0.022-0.047-6.797 11.385c-0.14 0.232-0.391 0.385-0.678 0.385s-0.538-0.153-0.676-0.382l-0.002-0.004zM17.929 27.993c-0.095-0.043-0.205-0.069-0.322-0.069s-0.227 0.025-0.327 0.071l0.005-0.002-5.285 2.352-5.285-2.352c-0.095-0.043-0.205-0.069-0.322-0.069s-0.227 0.025-0.327 0.071l0.005-0.002-3.659 1.628 3.183-6.734 2.017-0.897 2.355 3.946c0.421 0.697 1.174 1.155 2.034 1.155s1.613-0.459 2.028-1.145l0.006-0.011 2.355-3.946 2.017 0.897 3.182 6.734z"></path>
<path d="M11.999 6.35c-1.99 0-3.604 1.614-3.604 3.604s1.614 3.604 3.604 3.604c1.99 0 3.604-1.614 3.604-3.604v0c-0.002-1.989-1.614-3.601-3.604-3.604h-0zM11.999 11.978c-1.118 0-2.024-0.906-2.024-2.024s0.906-2.024 2.024-2.024c1.118 0 2.024 0.906 2.024 2.024v0c-0.001 1.117-0.907 2.023-2.024 2.024h-0z"></path>
</symbol>
</defs>
</svg>
