<svg version="1.1" xmlns="http://www.w3.org/2000/svg" xmlns:xlink="http://www.w3.org/1999/xlink">
<defs>
<symbol id="icon-instagram" viewBox="0 0 32 32">
<title>instagram</title>
<path d="M18.735 15.726c0 1.662-1.348 3.010-3.010 3.010s-3.010-1.348-3.010-3.010v0c0-1.662 1.348-3.010 3.010-3.010s3.010 1.348 3.010 3.010v0z"></path>
<path d="M20.545 11.989c-0.598 0-1.083-0.485-1.083-1.083s0.485-1.083 1.083-1.083v0c0.598 0 1.083 0.485 1.083 1.083s-0.485 1.083-1.083 1.083v0zM15.726 20.361c-2.561 0-4.637-2.076-4.637-4.637s2.076-4.637 4.637-4.637v0c2.561 0 4.637 2.076 4.637 4.637s-2.076 4.637-4.637 4.637v0zM22.766 10.399c-0.153-0.407-0.384-0.754-0.676-1.038l-0.001-0.001c-0.284-0.293-0.631-0.523-1.018-0.669l-0.019-0.006c-0.318-0.123-0.796-0.271-1.677-0.311-0.952-0.043-1.238-0.052-3.648-0.052-2.412 0-2.697 0.009-3.65 0.052-0.88 0.040-1.359 0.187-1.676 0.311-0.393 0.145-0.748 0.376-1.039 0.677-0.3 0.291-0.53 0.646-0.676 1.038-0.123 0.318-0.271 0.795-0.311 1.677-0.043 0.951-0.053 1.237-0.053 3.648s0.009 2.697 0.053 3.649c0.040 0.88 0.187 1.359 0.311 1.677 0.145 0.393 0.375 0.747 0.676 1.039 0.291 0.3 0.646 0.53 1.038 0.675 0.318 0.124 0.796 0.272 1.677 0.311 0.953 0.044 1.238 0.053 3.649 0.053s2.697-0.009 3.648-0.052c0.881-0.040 1.36-0.187 1.678-0.311 0.79-0.311 1.403-0.924 1.706-1.694l0.007-0.020c0.123-0.318 0.271-0.795 0.311-1.677 0.044-0.952 0.053-1.238 0.053-3.648 0-2.412-0.009-2.697-0.053-3.649-0.040-0.88-0.186-1.359-0.311-1.677z"></path>
<path d="M24.7 19.448c-0.044 0.961-0.197 1.618-0.421 2.192-0.479 1.217-1.424 2.162-2.609 2.63l-0.031 0.011c-0.574 0.223-1.231 0.375-2.192 0.42-0.963 0.044-1.271 0.055-3.723 0.055s-2.759-0.011-3.723-0.055c-0.96-0.044-1.617-0.197-2.192-0.421-0.626-0.239-1.16-0.593-1.599-1.041l-0.001-0.001c-0.447-0.44-0.801-0.973-1.030-1.569l-0.010-0.030c-0.223-0.574-0.376-1.231-0.421-2.192-0.044-0.963-0.054-1.271-0.054-3.723s0.010-2.759 0.055-3.723c0.043-0.96 0.196-1.617 0.419-2.192 0.239-0.626 0.594-1.16 1.042-1.599l0.001-0.001c0.44-0.448 0.974-0.801 1.57-1.030l0.030-0.010c0.573-0.223 1.23-0.376 2.191-0.421 0.964-0.043 1.271-0.054 3.723-0.054s2.76 0.011 3.723 0.055c0.961 0.044 1.617 0.197 2.192 0.419 0.626 0.24 1.16 0.594 1.599 1.042l0.001 0.001c0.448 0.44 0.802 0.974 1.031 1.57l0.010 0.030c0.223 0.573 0.376 1.23 0.42 2.191 0.044 0.964 0.055 1.271 0.055 3.723s-0.011 2.76-0.055 3.723zM15.725 0c-8.683 0-15.725 7.042-15.725 15.726s7.042 15.724 15.726 15.724c8.683 0 15.724-7.041 15.724-15.725s-7.041-15.725-15.724-15.725z"></path>
</symbol>
<symbol id="icon-youtube" viewBox="0 0 32 32">
<title>youtube</title>
<path d="M14.128 18.726l5.093-2.934-5.093-2.933z"></path>
<path d="M25.861 15.808s0 3.176-0.402 4.708c-0.233 0.841-0.883 1.491-1.707 1.72l-0.017 0.004c-1.531 0.402-7.656 0.402-7.656 0.402s-6.108 0-7.656-0.419c-0.841-0.234-1.491-0.883-1.72-1.707l-0.004-0.017c-0.402-1.515-0.402-4.707-0.402-4.707s0-3.174 0.402-4.706c0.238-0.843 0.884-1.495 1.707-1.736l0.018-0.004c1.531-0.402 7.656-0.402 7.656-0.402s6.125 0 7.656 0.419c0.837 0.225 1.498 0.887 1.724 1.724 0.419 1.531 0.402 4.722 0.402 4.722zM16.079 0.136c-8.646-0.001-15.658 7.011-15.658 15.656s7.012 15.657 15.657 15.657 15.657-7.011 15.657-15.657c0-8.646-7.011-15.657-15.656-15.657z"></path>
</symbol>
<symbol id="icon-facebook" viewBox="0 0 32 32">
<title>facebook</title>
<path d="M19.636 16.279h-2.559v9.118h-3.791v-9.118h-1.802v-3.223h1.802v-2.085c0-1.493 0.71-3.826 3.825-3.826l2.81 0.011v3.129h-2.039c-0.332 0-0.805 0.165-0.805 0.878v1.893h2.889zM15.725 0c-8.67 0-15.725 7.055-15.725 15.726 0 8.669 7.055 15.724 15.726 15.724 8.669 0 15.724-7.055 15.724-15.725s-7.053-15.725-15.724-15.725z"></path>
</symbol>
</defs>
</svg>
