<svg xmlns="http://www.w3.org/2000/svg" width="70" height="22" viewBox="0 0 70 22"><g><g><g><g><g><path fill="#2394bc" d="M20.323.159h5.917l-8.792 21.747H11.53L6.514 3.191c3.544 1.817 6.72 5.474 7.733 8.84l.597 2.917L20.324.156zm38.435 13.09zm0 0h3.956L61.01 6.197s-2.132 7.04-2.252 7.052zm10.953 8.696h-5.176l-.839-4.337H57.13l-1.616 4.32h-5.87l8.308-19.953C58.529.607 59.542.224 60.875.224h4.327zM45.362 9.025c3.224 1.503 4.717 3.342 4.697 5.742-.048 4.377-3.866 7.205-9.735 7.205-2.508-.027-4.924-.54-6.237-1.124l.782-4.734.736.335c1.82.787 3.017 1.122 5.248 1.122 1.61 0 3.335-.651 3.36-2.063 0-.92-.737-1.59-2.9-2.625-2.118-1.009-4.948-2.69-4.902-5.72.024-4.107 3.913-6.978 9.435-6.978 2.163 0 3.915.47 5.02.897l-.761 4.555-.508-.226c-1.013-.425-2.348-.852-4.165-.806-2.209 0-3.198.919-3.222 1.816 0 .987 1.198 1.639 3.152 2.604zM34.084.156l-3.496 21.772h-5.592L28.494.156h5.59z"/></g></g></g><g><path fill="#efc75e" d="M12.404 2.964c-.427-1.66-1.788-2.78-3.638-2.803H.09L0 .563c6.769 1.67 12.45 6.804 14.293 11.633z"/></g></g></g></svg>