<svg xmlns="http://www.w3.org/2000/svg" width="35" height="35" viewBox="0 0 35 35"><g><g><g><path fill="#aac0c3" d="M15.453 20.482l5.57-3.209-5.57-3.208z"/></g><g><path fill="#aac0c3" d="M28.286 17.29s0 3.474-.44 5.149a2.681 2.681 0 0 1-1.886 1.886c-1.675.44-8.374.44-8.374.44s-6.681 0-8.374-.458a2.682 2.682 0 0 1-1.886-1.886c-.44-1.657-.44-5.148-.44-5.148s0-3.472.44-5.147a2.736 2.736 0 0 1 1.886-1.904c1.675-.44 8.374-.44 8.374-.44s6.699 0 8.374.458c.916.246 1.639.97 1.886 1.886.458 1.675.44 5.165.44 5.165zM17.586.149C8.13.148.46 7.817.46 17.273c0 9.457 7.669 17.125 17.125 17.125S34.71 26.73 34.71 17.273C34.71 7.817 27.042.148 17.586.148z"/></g></g></g></svg>